<svg xmlns="http://www.w3.org/2000/svg" version="1.1" viewBox="132 581 1315 354">
<path d="M0 0 C0.763125 0.0825 1.52625 0.165 2.3125 0.25 C2.8075 2.725 2.8075 2.725 3.3125 5.25 C3.3125 4.26 3.3125 3.27 3.3125 2.25 C4.9625 2.25 6.6125 2.25 8.3125 2.25 C8.3125 3.24 8.3125 4.23 8.3125 5.25 C9.3025 4.92 10.2925 4.59 11.3125 4.25 C11.6425 3.59 11.9725 2.93 12.3125 2.25 C17.65085073 2.0821776 22.98935235 1.92163987 28.328125 1.76782227 C30.14394003 1.7144827 31.95969793 1.65915978 33.77539062 1.60180664 C36.38659347 1.51967088 38.99791926 1.44469103 41.609375 1.37109375 C42.82521271 1.33054115 42.82521271 1.33054115 44.06561279 1.28916931 C47.67995641 1.19365824 50.83740732 1.26184649 54.3125 2.25 C54.3125 3.24 54.3125 4.23 54.3125 5.25 C58.2725 5.25 62.2325 5.25 66.3125 5.25 C66.3125 6.24 66.3125 7.23 66.3125 8.25 C70.9325 8.25 75.5525 8.25 80.3125 8.25 C80.3125 9.24 80.3125 10.23 80.3125 11.25 C81.9625 11.25 83.6125 11.25 85.3125 11.25 C85.6425 12.24 85.9725 13.23 86.3125 14.25 C88.2925 14.25 90.2725 14.25 92.3125 14.25 C92.3125 14.91 92.3125 15.57 92.3125 16.25 C93.3025 16.25 94.2925 16.25 95.3125 16.25 C95.3125 14.6 95.3125 12.95 95.3125 11.25 C97.625 11 97.625 11 100.3125 11.25 C102.1875 13 102.1875 13 103.3125 15.25 C103.0625 17.3125 103.0625 17.3125 102.3125 19.25 C101.9825 20.24 101.6525 21.23 101.3125 22.25 C102.9625 22.25 104.6125 22.25 106.3125 22.25 C106.3125 23.24 106.3125 24.23 106.3125 25.25 C107.3025 25.25 108.2925 25.25 109.3125 25.25 C109.3125 26.24 109.3125 27.23 109.3125 28.25 C110.9625 28.58 112.6125 28.91 114.3125 29.25 C114.6425 30.9 114.9725 32.55 115.3125 34.25 C117.2925 34.25 119.2725 34.25 121.3125 34.25 C121.3125 35.24 121.3125 36.23 121.3125 37.25 C121.9725 37.25 122.6325 37.25 123.3125 37.25 C123.3125 38.24 123.3125 39.23 123.3125 40.25 C124.075625 40.29125 124.83875 40.3325 125.625 40.375 C128.3125 41.25 128.3125 41.25 130.0625 44.0625 C131.01125386 46.48182234 131.82352111 48.70730977 132.3125 51.25 C133.3025 51.25 134.2925 51.25 135.3125 51.25 C135.3125 52.9 135.3125 54.55 135.3125 56.25 C136.3025 56.58 137.2925 56.91 138.3125 57.25 C138.3125 58.24 138.3125 59.23 138.3125 60.25 C139.3025 60.25 140.2925 60.25 141.3125 60.25 C141.3125 62.23 141.3125 64.21 141.3125 66.25 C142.3025 66.25 143.2925 66.25 144.3125 66.25 C144.3125 67.9 144.3125 69.55 144.3125 71.25 C145.3025 71.25 146.2925 71.25 147.3125 71.25 C147.3125 73.23 147.3125 75.21 147.3125 77.25 C148.3025 77.58 149.2925 77.91 150.3125 78.25 C150.3125 79.9 150.3125 81.55 150.3125 83.25 C150.9725 83.25 151.6325 83.25 152.3125 83.25 C152.6425 86.22 152.9725 89.19 153.3125 92.25 C153.9725 92.25 154.6325 92.25 155.3125 92.25 C155.3125 95.22 155.3125 98.19 155.3125 101.25 C155.9725 101.25 156.6325 101.25 157.3125 101.25 C157.6425 102.24 157.9725 103.23 158.3125 104.25 C157.3225 104.58 156.3325 104.91 155.3125 105.25 C155.80000732 105.72816162 156.28751465 106.20632324 156.78979492 106.69897461 C159.02147844 110.43776907 158.72364181 113.78938903 158.67578125 118.06640625 C158.67652901 119.34571266 158.67652901 119.34571266 158.67729187 120.65086365 C158.6749551 122.45045303 158.66524998 124.25004592 158.64868164 126.04956055 C158.62505466 128.80612336 158.62812786 131.56172079 158.63476562 134.31835938 C158.62918975 136.06771411 158.62208043 137.81706476 158.61328125 139.56640625 C158.61419266 140.39145157 158.61510406 141.21649689 158.61604309 142.06654358 C158.5676177 145.96653993 158.5239442 147.93283369 156.3125 151.25 C155.89323551 153.72624354 155.89323551 153.72624354 155.75 156.375 C155.41078393 161.15171607 155.41078393 161.15171607 154.3125 162.25 C153.56627902 166.72745239 153.56627902 166.72745239 153.3125 171.25 C152.99771554 172.58783393 152.66662344 173.92203709 152.3125 175.25 C151.6525 175.25 150.9925 175.25 150.3125 175.25 C149.9825 176.24 149.6525 177.23 149.3125 178.25 C148.6525 178.25 147.9925 178.25 147.3125 178.25 C147.3125 180.23 147.3125 182.21 147.3125 184.25 C146.3225 184.25 145.3325 184.25 144.3125 184.25 C144.3125 186.56 144.3125 188.87 144.3125 191.25 C144.9725 191.25 145.6325 191.25 146.3125 191.25 C145.9825 192.57 145.6525 193.89 145.3125 195.25 C143.9925 195.25 142.6725 195.25 141.3125 195.25 C140.6525 195.58 139.9925 195.91 139.3125 196.25 C138.65694881 198.77733235 138.65694881 198.77733235 138.3125 201.25 C137.3225 201.25 136.3325 201.25 135.3125 201.25 C135.3125 202.24 135.3125 203.23 135.3125 204.25 C134.3225 204.25 133.3325 204.25 132.3125 204.25 C132.3125 205.24 132.3125 206.23 132.3125 207.25 C130.9375 208.9375 130.9375 208.9375 129.3125 210.25 C128.6525 210.25 127.9925 210.25 127.3125 210.25 C126.9825 211.9 126.6525 213.55 126.3125 215.25 C124.6625 215.58 123.0125 215.91 121.3125 216.25 C121.3125 217.24 121.3125 218.23 121.3125 219.25 C120.6525 219.58 119.9925 219.91 119.3125 220.25 C118.66036708 222.27463255 118.66036708 222.27463255 118.3125 224.25 C116.3325 224.25 114.3525 224.25 112.3125 224.25 C112.3125 225.24 112.3125 226.23 112.3125 227.25 C111.3225 227.25 110.3325 227.25 109.3125 227.25 C109.3125 228.24 109.3125 229.23 109.3125 230.25 C108.3225 230.25 107.3325 230.25 106.3125 230.25 C106.3125 231.24 106.3125 232.23 106.3125 233.25 C104.6625 233.25 103.0125 233.25 101.3125 233.25 C101.333125 234.36375 101.35375 235.4775 101.375 236.625 C101.3125 240.25 101.3125 240.25 100.3125 242.25 C98.6625 241.92 97.0125 241.59 95.3125 241.25 C95.3125 240.59 95.3125 239.93 95.3125 239.25 C93.3325 239.25 91.3525 239.25 89.3125 239.25 C89.3125 240.24 89.3125 241.23 89.3125 242.25 C87.3325 242.25 85.3525 242.25 83.3125 242.25 C82.9825 243.24 82.6525 244.23 82.3125 245.25 C81.6525 245.25 80.9925 245.25 80.3125 245.25 C80.3125 245.91 80.3125 246.57 80.3125 247.25 C79.45785156 247.38277344 78.60320312 247.51554688 77.72265625 247.65234375 C76.06556641 247.91724609 76.06556641 247.91724609 74.375 248.1875 C73.27285156 248.36152344 72.17070313 248.53554688 71.03515625 248.71484375 C68.40823071 248.96845136 68.40823071 248.96845136 67.3125 250.25 C65.62641034 250.32205511 63.93749341 250.33386068 62.25 250.3125 C61.33089844 250.30347656 60.41179687 250.29445313 59.46484375 250.28515625 C58.75457031 250.27355469 58.04429687 250.26195312 57.3125 250.25 C57.3125 251.24 57.3125 252.23 57.3125 253.25 C51.36767888 253.27467203 45.4228874 253.29284663 39.47802734 253.30493164 C37.45458457 253.30996831 35.43114544 253.31679789 33.40771484 253.32543945 C30.50357157 253.33753412 27.59947631 253.34323488 24.6953125 253.34765625 C23.78693634 253.35281754 22.87856018 253.35797882 21.94265747 253.36329651 C21.10193695 253.36337204 20.26121643 253.36344757 19.39501953 253.36352539 C18.65333527 253.365746 17.911651 253.36796661 17.14749146 253.37025452 C15.3125 253.25 15.3125 253.25 13.3125 252.25 C13.3125 251.59 13.3125 250.93 13.3125 250.25 C8.0325 250.25 2.7525 250.25 -2.6875 250.25 C-2.6875 249.59 -2.6875 248.93 -2.6875 248.25 C-5.6575 247.92 -8.6275 247.59 -11.6875 247.25 C-11.6875 246.59 -11.6875 245.93 -11.6875 245.25 C-13.3375 245.25 -14.9875 245.25 -16.6875 245.25 C-17.0175 244.26 -17.3475 243.27 -17.6875 242.25 C-19.3375 242.25 -20.9875 242.25 -22.6875 242.25 C-22.6875 241.26 -22.6875 240.27 -22.6875 239.25 C-24.6675 239.25 -26.6475 239.25 -28.6875 239.25 C-29.0175 238.59 -29.3475 237.93 -29.6875 237.25 C-32.21483235 236.59444881 -32.21483235 236.59444881 -34.6875 236.25 C-34.6875 235.26 -34.6875 234.27 -34.6875 233.25 C-36.3375 233.25 -37.9875 233.25 -39.6875 233.25 C-39.6875 232.26 -39.6875 231.27 -39.6875 230.25 C-41.0075 229.92 -42.3275 229.59 -43.6875 229.25 C-43.6875 228.59 -43.6875 227.93 -43.6875 227.25 C-44.3475 227.25 -45.0075 227.25 -45.6875 227.25 C-45.6875 226.26 -45.6875 225.27 -45.6875 224.25 C-47.6675 224.25 -49.6475 224.25 -51.6875 224.25 C-51.6875 223.26 -51.6875 222.27 -51.6875 221.25 C-52.6775 221.25 -53.6675 221.25 -54.6875 221.25 C-56.375 219.875 -56.375 219.875 -57.6875 218.25 C-57.6875 217.59 -57.6875 216.93 -57.6875 216.25 C-58.6775 215.92 -59.6675 215.59 -60.6875 215.25 C-60.81125 214.651875 -60.935 214.05375 -61.0625 213.4375 C-61.97294866 210.2509297 -64.09717239 209.22358294 -66.6875 207.25 C-69.6875 203.73275862 -69.6875 203.73275862 -69.6875 201.25 C-71.0075 200.59 -72.3275 199.93 -73.6875 199.25 C-73.6875 198.26 -73.6875 197.27 -73.6875 196.25 C-74.6775 195.321875 -74.6775 195.321875 -75.6875 194.375 C-77.6875 192.25 -77.6875 192.25 -77.9375 189.5 C-77.855 188.7575 -77.7725 188.015 -77.6875 187.25 C-78.6775 186.92 -79.6675 186.59 -80.6875 186.25 C-80.6875 184.6 -80.6875 182.95 -80.6875 181.25 C-81.6775 181.25 -82.6675 181.25 -83.6875 181.25 C-83.6875 179.27 -83.6875 177.29 -83.6875 175.25 C-84.6775 174.92 -85.6675 174.59 -86.6875 174.25 C-86.6875 170.62 -86.6875 166.99 -86.6875 163.25 C-87.3475 163.25 -88.0075 163.25 -88.6875 163.25 C-90.07293906 160.47912188 -90.0603893 157.79732349 -90.30859375 154.734375 C-90.6062732 152.1804695 -90.6062732 152.1804695 -91.69677734 149.64648438 C-92.91670157 145.46423061 -92.95714539 141.75068797 -92.91796875 137.421875 C-92.91751053 136.59165833 -92.91705231 135.76144165 -92.9165802 134.90606689 C-92.91357259 133.16132161 -92.90573124 131.41657866 -92.89331055 129.671875 C-92.87496365 126.99469564 -92.87280171 124.31786091 -92.87304688 121.640625 C-92.86813445 119.94270533 -92.86230733 118.24478801 -92.85546875 116.546875 C-92.85435593 115.74481628 -92.8532431 114.94275757 -92.85209656 114.11639404 C-92.80360519 108.48221039 -92.80360519 108.48221039 -91.6875 106.25 C-91.0275 106.25 -90.3675 106.25 -89.6875 106.25 C-89.6875 105.26 -89.6875 104.27 -89.6875 103.25 C-90.6775 102.92 -91.6675 102.59 -92.6875 102.25 C-92.26543265 99.40104538 -91.73368896 98.29763237 -89.6875 96.1875 C-87.071152 92.34473887 -87.12159313 89.24210864 -86.9609375 84.67578125 C-86.6875 82.25 -86.6875 82.25 -84.6875 80.25 C-83.97341666 78.26643517 -83.30132258 76.26684563 -82.6875 74.25 C-82.0275 74.25 -81.3675 74.25 -80.6875 74.25 C-80.6875 72.6 -80.6875 70.95 -80.6875 69.25 C-79.6975 68.755 -79.6975 68.755 -78.6875 68.25 C-78.03194881 65.72266765 -78.03194881 65.72266765 -77.6875 63.25 C-76.6975 63.25 -75.7075 63.25 -74.6875 63.25 C-74.6875 61.93 -74.6875 60.61 -74.6875 59.25 C-75.3475 59.25 -76.0075 59.25 -76.6875 59.25 C-76.6875 57.93 -76.6875 56.61 -76.6875 55.25 C-76.0275 55.25 -75.3675 55.25 -74.6875 55.25 C-74.3575 53.27 -74.0275 51.29 -73.6875 49.25 C-73.0275 49.25 -72.3675 49.25 -71.6875 49.25 C-71.3575 48.26 -71.0275 47.27 -70.6875 46.25 C-69.6975 46.25 -68.7075 46.25 -67.6875 46.25 C-67.6875 45.59 -67.6875 44.93 -67.6875 44.25 C-66.3675 44.58 -65.0475 44.91 -63.6875 45.25 C-63.6875 44.59 -63.6875 43.93 -63.6875 43.25 C-62.6975 42.755 -62.6975 42.755 -61.6875 42.25 C-62.3475 41.26 -63.0075 40.27 -63.6875 39.25 C-63.3125 36.5625 -63.3125 36.5625 -62.6875 34.25 C-62.0275 34.25 -61.3675 34.25 -60.6875 34.25 C-60.3575 33.26 -60.0275 32.27 -59.6875 31.25 C-58.3675 31.25 -57.0475 31.25 -55.6875 31.25 C-55.0275 30.26 -54.3675 29.27 -53.6875 28.25 C-52.3675 28.58 -51.0475 28.91 -49.6875 29.25 C-49.6875 29.91 -49.6875 30.57 -49.6875 31.25 C-48.3675 31.25 -47.0475 31.25 -45.6875 31.25 C-45.6875 30.26 -45.6875 29.27 -45.6875 28.25 C-45.0275 27.92 -44.3675 27.59 -43.6875 27.25 C-43.28020772 24.92843403 -42.94311323 22.5931213 -42.6875 20.25 C-39.06423261 19.0422442 -38.04603631 19.70688872 -34.6875 21.25 C-34.6875 20.59 -34.6875 19.93 -34.6875 19.25 C-33.6975 19.25 -32.7075 19.25 -31.6875 19.25 C-31.6875 18.59 -31.6875 17.93 -31.6875 17.25 C-31.048125 17.0025 -30.40875 16.755 -29.75 16.5 C-27.49114886 15.46186805 -27.49114886 15.46186805 -27.1875 13.25 C-26.6875 11.25 -26.6875 11.25 -24.625 10 C-23.985625 9.7525 -23.34625 9.505 -22.6875 9.25 C-22.6875 12.25 -22.6875 12.25 -23.6875 14.25 C-22.3675 14.25 -21.0475 14.25 -19.6875 14.25 C-19.6875 13.26 -19.6875 12.27 -19.6875 11.25 C-14.56424471 8.79510684 -10.34854589 7.74658297 -4.6875 7.25 C-5.1825 5.765 -5.1825 5.765 -5.6875 4.25 C-4.12435347 1.21054842 -3.46963346 0.3227566 0 0 Z M95.3125 16.25 C96.6325 17.24 97.9525 18.23 99.3125 19.25 C98.9825 18.26 98.6525 17.27 98.3125 16.25 C97.3225 16.25 96.3325 16.25 95.3125 16.25 Z M48.3125 22.25 C47.6525 22.91 46.9925 23.57 46.3125 24.25 C43.65712628 24.81520003 41.02105287 24.98788198 38.3125 25.25 C37.9825 26.24 37.6525 27.23 37.3125 28.25 C34.3425 28.25 31.3725 28.25 28.3125 28.25 C28.3125 29.24 28.3125 30.23 28.3125 31.25 C25.6725 31.25 23.0325 31.25 20.3125 31.25 C20.3125 32.24 20.3125 33.23 20.3125 34.25 C19.384375 34.188125 18.45625 34.12625 17.5 34.0625 C14.35478951 33.95805109 14.35478951 33.95805109 12.4375 35.625 C11.12276334 37.19466014 11.12276334 37.19466014 11.3125 39.25 C8.3425 39.745 8.3425 39.745 5.3125 40.25 C5.3125 40.91 5.3125 41.57 5.3125 42.25 C4.3225 42.25 3.3325 42.25 2.3125 42.25 C2.3125 43.24 2.3125 44.23 2.3125 45.25 C1.3225 45.25 0.3325 45.25 -0.6875 45.25 C-1.0175 45.91 -1.3475 46.57 -1.6875 47.25 C-3.75 47.875 -3.75 47.875 -5.6875 48.25 C-5.6875 49.24 -5.6875 50.23 -5.6875 51.25 C-6.6775 51.25 -7.6675 51.25 -8.6875 51.25 C-8.6875 52.24 -8.6875 53.23 -8.6875 54.25 C-9.6775 54.25 -10.6675 54.25 -11.6875 54.25 C-11.6875 55.24 -11.6875 56.23 -11.6875 57.25 C-12.6775 57.25 -13.6675 57.25 -14.6875 57.25 C-14.6875 58.24 -14.6875 59.23 -14.6875 60.25 C-15.6775 60.25 -16.6675 60.25 -17.6875 60.25 C-17.6875 61.9 -17.6875 63.55 -17.6875 65.25 C-18.6775 65.25 -19.6675 65.25 -20.6875 65.25 C-20.6875 66.24 -20.6875 67.23 -20.6875 68.25 C-21.3475 68.25 -22.0075 68.25 -22.6875 68.25 C-22.6875 69.24 -22.6875 70.23 -22.6875 71.25 C-23.6775 71.25 -24.6675 71.25 -25.6875 71.25 C-26.0175 73.89 -26.3475 76.53 -26.6875 79.25 C-27.3475 79.25 -28.0075 79.25 -28.6875 79.25 C-28.6875 80.57 -28.6875 81.89 -28.6875 83.25 C-30.1725 83.745 -30.1725 83.745 -31.6875 84.25 C-32.0596042 85.57303717 -32.39380173 86.90737935 -32.6875 88.25 C-33.6775 88.745 -33.6775 88.745 -34.6875 89.25 C-34.6875 90.9 -34.6875 92.55 -34.6875 94.25 C-35.6775 94.25 -36.6675 94.25 -37.6875 94.25 C-37.73648438 95.15363281 -37.78546875 96.05726563 -37.8359375 96.98828125 C-37.94808594 98.75751953 -37.94808594 98.75751953 -38.0625 100.5625 C-38.13210938 101.73425781 -38.20171875 102.90601563 -38.2734375 104.11328125 C-38.6875 107.25 -38.6875 107.25 -40.6875 110.25 C-40.92998763 113.12283791 -40.92998763 113.12283791 -40.8125 116.25 C-40.79445313 117.301875 -40.77640625 118.35375 -40.7578125 119.4375 C-40.73460937 120.365625 -40.71140625 121.29375 -40.6875 122.25 C-40.6875 123.24 -40.6875 124.23 -40.6875 125.25 C-42.1725 126.24 -42.1725 126.24 -43.6875 127.25 C-43.0275 127.58 -42.3675 127.91 -41.6875 128.25 C-41.66768066 128.84538574 -41.64786133 129.44077148 -41.62744141 130.05419922 C-41.53233874 132.74492153 -41.42260158 135.43485148 -41.3125 138.125 C-41.26609375 139.53072266 -41.26609375 139.53072266 -41.21875 140.96484375 C-41.18007813 141.86074219 -41.14140625 142.75664063 -41.1015625 143.6796875 C-41.0701416 144.50710449 -41.0387207 145.33452148 -41.00634766 146.18701172 C-40.86150863 148.46986085 -40.86150863 148.46986085 -38.6875 150.25 C-38.2734375 152.4140625 -38.2734375 152.4140625 -38.0625 154.875 C-37.98773437 155.69226563 -37.91296875 156.50953125 -37.8359375 157.3515625 C-37.78695312 157.97804688 -37.73796875 158.60453125 -37.6875 159.25 C-37.0275 159.25 -36.3675 159.25 -35.6875 159.25 C-35.501875 160.4565625 -35.501875 160.4565625 -35.3125 161.6875 C-35.10625 162.533125 -34.9 163.37875 -34.6875 164.25 C-34.0275 164.58 -33.3675 164.91 -32.6875 165.25 C-32.28020772 167.57156597 -31.94311323 169.9068787 -31.6875 172.25 C-30.6975 172.58 -29.7075 172.91 -28.6875 173.25 C-28.6875 174.9 -28.6875 176.55 -28.6875 178.25 C-28.0275 178.58 -27.3675 178.91 -26.6875 179.25 C-25.96590576 180.89363134 -25.29398579 182.56050386 -24.6875 184.25 C-24.0275 184.25 -23.3675 184.25 -22.6875 184.25 C-22.6875 185.24 -22.6875 186.23 -22.6875 187.25 C-22.0275 187.25 -21.3675 187.25 -20.6875 187.25 C-20.6875 188.57 -20.6875 189.89 -20.6875 191.25 C-18.4170585 193.77093031 -18.4170585 193.77093031 -15.6875 196.25 C-14.98625 197.178125 -14.285 198.10625 -13.5625 199.0625 C-12.94375 199.784375 -12.325 200.50625 -11.6875 201.25 C-10.6975 201.25 -9.7075 201.25 -8.6875 201.25 C-8.6875 202.24 -8.6875 203.23 -8.6875 204.25 C-7.0375 204.58 -5.3875 204.91 -3.6875 205.25 C-3.6875 205.91 -3.6875 206.57 -3.6875 207.25 C-1.71459413 209.59869747 -0.68443138 210.25102287 2.3125 211.25 C2.6425 211.91 2.9725 212.57 3.3125 213.25 C3.9725 213.25 4.6325 213.25 5.3125 213.25 C5.3125 214.24 5.3125 215.23 5.3125 216.25 C7.2925 216.25 9.2725 216.25 11.3125 216.25 C11.3125 217.24 11.3125 218.23 11.3125 219.25 C13.2925 219.25 15.2725 219.25 17.3125 219.25 C17.3125 220.24 17.3125 221.23 17.3125 222.25 C18.8936292 222.75692692 20.47751383 223.25526443 22.0625 223.75 C22.94421875 224.0284375 23.8259375 224.306875 24.734375 224.59375 C27.51517529 225.41445285 27.51517529 225.41445285 31.3125 225.25 C31.3125 225.91 31.3125 226.57 31.3125 227.25 C33.2925 227.58 35.2725 227.91 37.3125 228.25 C37.3125 228.91 37.3125 229.57 37.3125 230.25 C39.68693423 230.47354724 42.06075095 230.679163 44.4375 230.875 C45.10265625 230.93945312 45.7678125 231.00390625 46.453125 231.0703125 C50.89827342 231.41895159 54.20706456 230.98451528 58.3125 229.25 C58.6425 228.92 58.9725 228.59 59.3125 228.25 C61.64067964 227.88239269 63.9743385 227.54758419 66.3125 227.25 C66.3125 226.59 66.3125 225.93 66.3125 225.25 C69.2825 224.92 72.2525 224.59 75.3125 224.25 C75.3125 223.59 75.3125 222.93 75.3125 222.25 C76.9625 222.25 78.6125 222.25 80.3125 222.25 C80.6425 221.26 80.9725 220.27 81.3125 219.25 C82.9625 219.25 84.6125 219.25 86.3125 219.25 C86.3125 218.26 86.3125 217.27 86.3125 216.25 C87.3025 216.25 88.2925 216.25 89.3125 216.25 C89.3125 215.26 89.3125 214.27 89.3125 213.25 C89.869375 213.12625 90.42625 213.0025 91 212.875 C93.53364364 212.19023145 95.89171032 211.25866237 98.3125 210.25 C98.3125 209.26 98.3125 208.27 98.3125 207.25 C99.3025 207.25 100.2925 207.25 101.3125 207.25 C101.3125 206.26 101.3125 205.27 101.3125 204.25 C102.3025 204.25 103.2925 204.25 104.3125 204.25 C104.6425 203.26 104.9725 202.27 105.3125 201.25 C103.9925 201.25 102.6725 201.25 101.3125 201.25 C101.3125 199.6 101.3125 197.95 101.3125 196.25 C102.9625 196.25 104.6125 196.25 106.3125 196.25 C106.3125 197.9 106.3125 199.55 106.3125 201.25 C106.6425 200.59 106.9725 199.93 107.3125 199.25 C107.9725 199.25 108.6325 199.25 109.3125 199.25 C109.3125 198.26 109.3125 197.27 109.3125 196.25 C110.3025 196.25 111.2925 196.25 112.3125 196.25 C112.3125 195.26 112.3125 194.27 112.3125 193.25 C113.3025 193.25 114.2925 193.25 115.3125 193.25 C115.498125 192.0434375 115.498125 192.0434375 115.6875 190.8125 C115.89375 189.966875 116.1 189.12125 116.3125 188.25 C116.9725 187.92 117.6325 187.59 118.3125 187.25 C118.3125 186.26 118.3125 185.27 118.3125 184.25 C119.3025 184.25 120.2925 184.25 121.3125 184.25 C123.81227543 180.91696609 124.3125 179.51696398 124.3125 175.25 C123.3225 175.25 122.3325 175.25 121.3125 175.25 C121.3125 173.6 121.3125 171.95 121.3125 170.25 C122.9625 170.25 124.6125 170.25 126.3125 170.25 C126.6425 170.91 126.9725 171.57 127.3125 172.25 C127.3125 171.59 127.3125 170.93 127.3125 170.25 C128.3025 170.25 129.2925 170.25 130.3125 170.25 C130.3125 167.28 130.3125 164.31 130.3125 161.25 C130.9725 161.25 131.6325 161.25 132.3125 161.25 C132.44527344 160.61191406 132.57804688 159.97382812 132.71484375 159.31640625 C132.89144531 158.49011719 133.06804687 157.66382813 133.25 156.8125 C133.42402344 155.98878906 133.59804688 155.16507813 133.77734375 154.31640625 C134.3125 152.25 134.3125 152.25 135.3125 151.25 C135.59799649 148.21376745 135.76118814 145.17742215 135.93359375 142.1328125 C136.3125 139.25 136.3125 139.25 138.3125 136.25 C138.58691372 134.1229569 138.58691372 134.1229569 138.5078125 131.80078125 C138.50136719 130.95322266 138.49492188 130.10566406 138.48828125 129.23242188 C138.47152344 128.35134766 138.45476562 127.47027344 138.4375 126.5625 C138.42847656 125.66982422 138.41945313 124.77714844 138.41015625 123.85742188 C138.38659748 121.65467686 138.35370329 119.45247412 138.3125 117.25 C137.6525 117.25 136.9925 117.25 136.3125 117.25 C136.1578125 115.455625 136.1578125 115.455625 136 113.625 C135.52358648 109.6875824 134.30119284 106.70859625 132.3125 103.25 C130.6625 103.25 129.0125 103.25 127.3125 103.25 C127.3125 101.27 127.3125 99.29 127.3125 97.25 C128.9625 97.25 130.6125 97.25 132.3125 97.25 C132.3125 96.26 132.3125 95.27 132.3125 94.25 C131.6525 94.25 130.9925 94.25 130.3125 94.25 C130.3125 91.61 130.3125 88.97 130.3125 86.25 C129.3225 86.25 128.3325 86.25 127.3125 86.25 C127.3125 84.27 127.3125 82.29 127.3125 80.25 C126.3225 81.24 126.3225 81.24 125.3125 82.25 C124.3225 82.25 123.3325 82.25 122.3125 82.25 C122.3125 78.25 122.3125 78.25 124.3125 76.25 C123.6525 75.59 122.9925 74.93 122.3125 74.25 C122.02375 73.425 121.735 72.6 121.4375 71.75 C120.09214207 68.7603157 119.14749391 68.62177124 116.3125 67.25 C116.0959375 66.321875 116.0959375 66.321875 115.875 65.375 C115.03914423 62.21732263 112.85947398 61.16023049 110.3125 59.25 C109.9825 58.59 109.6525 57.93 109.3125 57.25 C108.6525 57.25 107.9925 57.25 107.3125 57.25 C106.9825 55.6 106.6525 53.95 106.3125 52.25 C104.6625 51.92 103.0125 51.59 101.3125 51.25 C101.3125 50.26 101.3125 49.27 101.3125 48.25 C100.3225 48.25 99.3325 48.25 98.3125 48.25 C98.3125 47.26 98.3125 46.27 98.3125 45.25 C97.3225 45.25 96.3325 45.25 95.3125 45.25 C95.3125 44.26 95.3125 43.27 95.3125 42.25 C92.3425 42.745 92.3425 42.745 89.3125 43.25 C88.9825 41.93 88.6525 40.61 88.3125 39.25 C87.6525 39.25 86.9925 39.25 86.3125 39.25 C86.3125 38.59 86.3125 37.93 86.3125 37.25 C84.6625 36.92 83.0125 36.59 81.3125 36.25 C81.3125 35.59 81.3125 34.93 81.3125 34.25 C79.9925 33.92 78.6725 33.59 77.3125 33.25 C77.6425 32.59 77.9725 31.93 78.3125 31.25 C77.69761719 31.20101562 77.08273437 31.15203125 76.44921875 31.1015625 C75.64097656 31.02679687 74.83273437 30.95203125 74 30.875 C73.19949219 30.80539062 72.39898438 30.73578125 71.57421875 30.6640625 C69.3125 30.25 69.3125 30.25 66.3125 28.25 C64.25540404 28.00944532 64.25540404 28.00944532 62.125 28.125 C60.2378125 28.186875 60.2378125 28.186875 58.3125 28.25 C58.3125 27.26 58.3125 26.27 58.3125 25.25 C56.3325 25.25 54.3525 25.25 52.3125 25.25 C52.3125 24.26 52.3125 23.27 52.3125 22.25 C50.9925 22.25 49.6725 22.25 48.3125 22.25 Z M-54.6875 32.25 C-54.6875 32.91 -54.6875 33.57 -54.6875 34.25 C-53.6975 33.92 -52.7075 33.59 -51.6875 33.25 C-52.6775 32.92 -53.6675 32.59 -54.6875 32.25 Z M-69.6875 50.25 C-68.6875 53.25 -68.6875 53.25 -68.6875 53.25 Z M-39.6875 51.25 C-40.0175 52.24 -40.3475 53.23 -40.6875 54.25 C-39.6975 54.25 -38.7075 54.25 -37.6875 54.25 C-37.6875 53.26 -37.6875 52.27 -37.6875 51.25 C-38.3475 51.25 -39.0075 51.25 -39.6875 51.25 Z M-43.6875 54.25 C-43.6875 55.9 -43.6875 57.55 -43.6875 59.25 C-43.3575 58.59 -43.0275 57.93 -42.6875 57.25 C-42.0275 57.25 -41.3675 57.25 -40.6875 57.25 C-40.6875 56.26 -40.6875 55.27 -40.6875 54.25 C-41.6775 54.25 -42.6675 54.25 -43.6875 54.25 Z M-45.6875 59.25 C-45.749375 59.86875 -45.81125 60.4875 -45.875 61.125 C-46.6875 63.25 -46.6875 63.25 -49.25 64.5 C-50.054375 64.7475 -50.85875 64.995 -51.6875 65.25 C-51.6875 66.24 -51.6875 67.23 -51.6875 68.25 C-52.6775 68.25 -53.6675 68.25 -54.6875 68.25 C-54.6875 70.23 -54.6875 72.21 -54.6875 74.25 C-55.6775 74.58 -56.6675 74.91 -57.6875 75.25 C-57.0275 75.25 -56.3675 75.25 -55.6875 75.25 C-55.3575 76.9 -55.0275 78.55 -54.6875 80.25 C-53.6975 80.25 -52.7075 80.25 -51.6875 80.25 C-51.501875 78.3009375 -51.501875 78.3009375 -51.3125 76.3125 C-51.1015625 74.09765625 -51.1015625 74.09765625 -50.6875 72.25 C-50.0275 71.92 -49.3675 71.59 -48.6875 71.25 C-47.33521824 69.24701781 -47.33521824 69.24701781 -46.0625 66.875 C-45.61648438 66.08351563 -45.17046875 65.29203125 -44.7109375 64.4765625 C-43.47867877 62.2041128 -43.47867877 62.2041128 -43.6875 59.25 C-44.3475 59.25 -45.0075 59.25 -45.6875 59.25 Z M-60.6875 82.25 C-61.0175 83.24 -61.3475 84.23 -61.6875 85.25 C-62.6775 85.745 -62.6775 85.745 -63.6875 86.25 C-63.6875 87.9 -63.6875 89.55 -63.6875 91.25 C-64.6775 91.25 -65.6675 91.25 -66.6875 91.25 C-66.73648438 92.03246094 -66.78546875 92.81492187 -66.8359375 93.62109375 C-66.94808594 95.13896484 -66.94808594 95.13896484 -67.0625 96.6875 C-67.13210938 97.69683594 -67.20171875 98.70617187 -67.2734375 99.74609375 C-67.41007813 100.57238281 -67.54671875 101.39867187 -67.6875 102.25 C-68.3475 102.58 -69.0075 102.91 -69.6875 103.25 C-69.6875 106.88 -69.6875 110.51 -69.6875 114.25 C-70.3475 114.25 -71.0075 114.25 -71.6875 114.25 C-71.6875 116.56 -71.6875 118.87 -71.6875 121.25 C-70.2025 120.755 -70.2025 120.755 -68.6875 120.25 C-68.0275 122.23 -67.3675 124.21 -66.6875 126.25 C-68.3375 126.25 -69.9875 126.25 -71.6875 126.25 C-71.71434312 129.06256281 -71.73426188 131.87487241 -71.75 134.6875 C-71.75837891 135.48994141 -71.76675781 136.29238281 -71.77539062 137.11914062 C-71.7840143 139.16295221 -71.7397815 141.20683902 -71.6875 143.25 C-71.3575 143.58 -71.0275 143.91 -70.6875 144.25 C-70.40796781 146.3087768 -70.24015649 148.36728432 -70.06640625 150.4375 C-69.94136719 151.035625 -69.81632813 151.63375 -69.6875 152.25 C-69.0275 152.58 -68.3675 152.91 -67.6875 153.25 C-67.2734375 155.75390625 -67.2734375 155.75390625 -67.0625 158.8125 C-66.98773437 159.82441406 -66.91296875 160.83632813 -66.8359375 161.87890625 C-66.78695312 162.66136719 -66.73796875 163.44382812 -66.6875 164.25 C-65.6975 164.25 -64.7075 164.25 -63.6875 164.25 C-63.6875 166.89 -63.6875 169.53 -63.6875 172.25 C-62.6975 172.58 -61.7075 172.91 -60.6875 173.25 C-60.1925 172.26 -60.1925 172.26 -59.6875 171.25 C-58.0375 171.25 -56.3875 171.25 -54.6875 171.25 C-54.6875 170.59 -54.6875 169.93 -54.6875 169.25 C-55.3475 168.92 -56.0075 168.59 -56.6875 168.25 C-57.08215208 165.66682273 -57.19556152 163.10811719 -57.34375 160.5 C-57.4571875 159.7575 -57.570625 159.015 -57.6875 158.25 C-58.3475 157.92 -59.0075 157.59 -59.6875 157.25 C-60.0175 137.78 -60.3475 118.31 -60.6875 98.25 C-59.6975 97.92 -58.7075 97.59 -57.6875 97.25 C-57.6875 93.62 -57.6875 89.99 -57.6875 86.25 C-56.6975 86.25 -55.7075 86.25 -54.6875 86.25 C-55.0175 84.93 -55.3475 83.61 -55.6875 82.25 C-57.3375 82.25 -58.9875 82.25 -60.6875 82.25 Z M132.3125 99.25 C133.3125 103.25 133.3125 103.25 133.3125 103.25 Z M126.3125 173.25 C127.3125 175.25 127.3125 175.25 127.3125 175.25 Z M-54.6875 175.25 C-53.6975 175.745 -53.6975 175.745 -52.6875 176.25 C-52.6875 177.57 -52.6875 178.89 -52.6875 180.25 C-53.3475 180.25 -54.0075 180.25 -54.6875 180.25 C-54.6875 181.57 -54.6875 182.89 -54.6875 184.25 C-54.0275 184.25 -53.3675 184.25 -52.6875 184.25 C-52.584375 185.178125 -52.48125 186.10625 -52.375 187.0625 C-51.68218505 190.27464205 -51.2995831 191.36930017 -48.6875 193.25 C-48.0275 193.25 -47.3675 193.25 -46.6875 193.25 C-46.6875 194.24 -46.6875 195.23 -46.6875 196.25 C-45.6975 196.25 -44.7075 196.25 -43.6875 196.25 C-43.6875 197.24 -43.6875 198.23 -43.6875 199.25 C-42.6975 198.92 -41.7075 198.59 -40.6875 198.25 C-42.0428326 195.71326712 -42.0428326 195.71326712 -43.6875 193.25 C-44.3475 193.25 -45.0075 193.25 -45.6875 193.25 C-45.6875 191.93 -45.6875 190.61 -45.6875 189.25 C-46.3475 189.25 -47.0075 189.25 -47.6875 189.25 C-48.0175 186.61 -48.3475 183.97 -48.6875 181.25 C-49.6775 181.25 -50.6675 181.25 -51.6875 181.25 C-51.6875 179.27 -51.6875 177.29 -51.6875 175.25 C-52.6775 175.25 -53.6675 175.25 -54.6875 175.25 Z M-57.6875 178.25 C-57.6875 179.24 -57.6875 180.23 -57.6875 181.25 C-57.0275 180.92 -56.3675 180.59 -55.6875 180.25 C-56.3475 179.59 -57.0075 178.93 -57.6875 178.25 Z " fill="#FFFFFF" transform="translate(818.6875,675.75)"/>
<path d="M0 0 C2.39439431 0.46557667 4.7664125 0.93816802 7.125 1.5625 C9.1660264 2.11361481 9.1660264 2.11361481 12 2 C14.67356157 2.28627045 17.33365575 2.65031551 20 3 C20 2.34 20 1.68 20 1 C23.22064378 0.91053767 25.89752377 1.17267301 29 2 C29.99 2 30.98 2 32 2 C33.73046409 2.15260786 35.45962045 2.32048005 37.1875 2.5 C38.53908203 2.63921875 38.53908203 2.63921875 39.91796875 2.78125 C40.60503906 2.8534375 41.29210938 2.925625 42 3 C42 3.99 42 4.98 42 6 C45.63 6 49.26 6 53 6 C53.33 5.01 53.66 4.02 54 3 C55.65 3 57.3 3 59 3 C59 5.64 59 8.28 59 11 C60.98 11.33 62.96 11.66 65 12 C65 12.66 65 13.32 65 14 C66.65 14.33 68.3 14.66 70 15 C70 15.66 70 16.32 70 17 C71.32 17 72.64 17 74 17 C74 17.99 74 18.98 74 20 C74.99 20 75.98 20 77 20 C80 23.33333333 80 23.33333333 80 26 C81.65 26 83.3 26 85 26 C85 26.99 85 27.98 85 29 C85.99 29 86.98 29 88 29 C88 29.99 88 30.98 88 32 C88.99 32 89.98 32 91 32 C91 32.99 91 33.98 91 35 C91.99 35 92.98 35 94 35 C94 36.65 94 38.3 94 40 C94.99 40 95.98 40 97 40 C97 40.99 97 41.98 97 43 C97.99 43.33 98.98 43.66 100 44 C100 45.65 100 47.3 100 49 C100.99 49 101.98 49 103 49 C103 49.99 103 50.98 103 52 C103.66 52 104.32 52 105 52 C105.33 53.98 105.66 55.96 106 58 C106.66 58 107.32 58 108 58 C108 59.65 108 61.3 108 63 C108.99 63.33 109.98 63.66 111 64 C112.67578125 65.20703125 112.67578125 65.20703125 114 67 C114.29296875 69.69921875 114.29296875 69.69921875 114.1875 72.6875 C114.14689453 74.17830078 114.14689453 74.17830078 114.10546875 75.69921875 C114.07066406 76.45847656 114.03585937 77.21773437 114 78 C114.99 78.33 115.98 78.66 117 79 C117.1958009 80.91583647 117.38132214 82.83272539 117.5625 84.75 C117.66691406 85.81734375 117.77132813 86.8846875 117.87890625 87.984375 C117.98560074 90.64141204 117.81930395 92.49960572 117 95 C117.99 95.33 118.98 95.66 120 96 C120 135.93 120 175.86 120 217 C121.65 217.33 123.3 217.66 125 218 C125 218.99 125 219.98 125 221 C124.34 221 123.68 221 123 221 C122.67 222.32 122.34 223.64 122 225 C121.34 225 120.68 225 120 225 C119.67 225.99 119.34 226.98 119 228 C113.34605369 228.34615998 109.96993194 227.43425238 105 225 C105 225.99 105 226.98 105 228 C103.35 228 101.7 228 100 228 C100 227.01 100 226.02 100 225 C99.01 225 98.02 225 97 225 C97 183.75 97 142.5 97 100 C96.34 100 95.68 100 95 100 C93.79727181 97.59454362 93.89928528 96.05003047 93.9375 93.375 C93.94652344 92.55773437 93.95554687 91.74046875 93.96484375 90.8984375 C93.98224609 89.95871094 93.98224609 89.95871094 94 89 C93.01 89 92.02 89 91 89 C91 88.01 91 87.02 91 86 C89.35 86 87.7 86 86 86 C85.67 85.01 85.34 84.02 85 83 C85.495 82.62875 85.99 82.2575 86.5 81.875 C88.59755514 79.25305607 88.21743835 77.26157528 88 74 C87.34 74 86.68 74 86 74 C85.67 72.35 85.34 70.7 85 69 C84.34 69 83.68 69 83 69 C82.67 67.02 82.34 65.04 82 63 C81.34 63 80.68 63 80 63 C80 61.35 80 59.7 80 58 C79.01 57.67 78.02 57.34 77 57 C77 56.34 77 55.68 77 55 C76.01 55 75.02 55 74 55 C74 54.01 74 53.02 74 52 C73.01 51.67 72.02 51.34 71 51 C71 50.34 71 49.68 71 49 C70.01 49 69.02 49 68 49 C68 48.01 68 47.02 68 46 C67.01 46 66.02 46 65 46 C65 45.01 65 44.02 65 43 C64.01 43 63.02 43 62 43 C62 42.01 62 41.02 62 40 C61.01 40 60.02 40 59 40 C59 39.01 59 38.02 59 37 C57.35 37 55.7 37 54 37 C54 36.01 54 35.02 54 34 C52.35 34 50.7 34 49 34 C49 33.34 49 32.68 49 32 C46.69 31.67 44.38 31.34 42 31 C42 30.34 42 29.68 42 29 C41.01 28.67 40.02 28.34 39 28 C39 27.34 39 26.68 39 26 C35.7 26 32.4 26 29 26 C28.505 24.515 28.505 24.515 28 23 C26.80455566 23.04543945 26.80455566 23.04543945 25.58496094 23.09179688 C21.97333621 23.22864071 18.36166912 23.36433324 14.75 23.5 C13.49574219 23.54769531 12.24148438 23.59539063 10.94921875 23.64453125 C9.74394531 23.68964844 8.53867188 23.73476563 7.296875 23.78125 C6.18666992 23.82314453 5.07646484 23.86503906 3.93261719 23.90820312 C1.6226736 23.98050905 -0.68892503 24 -3 24 C-3.33 24.66 -3.66 25.32 -4 26 C-6.97 26 -9.94 26 -13 26 C-13 26.99 -13 27.98 -13 29 C-14.32 29.66 -15.64 30.32 -17 31 C-16.67 31.33 -16.34 31.66 -16 32 C-15.95936168 33.66617115 -15.957279 35.33388095 -16 37 C-17.65 37 -19.3 37 -21 37 C-21.33 36.01 -21.66 35.02 -22 34 C-23.65 34 -25.3 34 -27 34 C-27 34.99 -27 35.98 -27 37 C-28.98 37 -30.96 37 -33 37 C-33 37.99 -33 38.98 -33 40 C-33.99 40 -34.98 40 -36 40 C-36 40.99 -36 41.98 -36 43 C-36.99 43 -37.98 43 -39 43 C-39 43.99 -39 44.98 -39 46 C-39.99 46 -40.98 46 -42 46 C-42 46.99 -42 47.98 -42 49 C-42.99 49 -43.98 49 -45 49 C-45 49.99 -45 50.98 -45 52 C-45.66 52 -46.32 52 -47 52 C-47.33 52.99 -47.66 53.98 -48 55 C-48.66 55 -49.32 55 -50 55 C-50.33 56.65 -50.66 58.3 -51 60 C-51.66 60 -52.32 60 -53 60 C-53 60.99 -53 61.98 -53 63 C-53.99 63 -54.98 63 -56 63 C-56 63.99 -56 64.98 -56 66 C-56.99 66 -57.98 66 -59 66 C-59 68.64 -59 71.28 -59 74 C-59.99 74.33 -60.98 74.66 -62 75 C-61.34 76.98 -60.68 78.96 -60 81 C-60.99 81.33 -61.98 81.66 -63 82 C-63.66 81.67 -64.32 81.34 -65 81 C-65 83.64 -65 86.28 -65 89 C-65.99 89 -66.98 89 -68 89 C-68 90.98 -68 92.96 -68 95 C-68.66 95 -69.32 95 -70 95 C-69.81308594 95.5053125 -69.62617187 96.010625 -69.43359375 96.53125 C-68.83084239 99.9631316 -69.52045205 103.10073617 -70.0625 106.5 C-71.30772496 115.21657475 -70.52510564 123.33610133 -69.41015625 132.02734375 C-69 136 -69 136 -70 138 C-69.34 138 -68.68 138 -68 138 C-68 139.32 -68 140.64 -68 142 C-67.34 142 -66.68 142 -66 142 C-64.39274365 145.21451269 -64.94251815 148.43612536 -65 152 C-64.01 152.33 -63.02 152.66 -62 153 C-61.25 154.9375 -61.25 154.9375 -61 157 C-61.33 157.66 -61.66 158.32 -62 159 C-61.01 159 -60.02 159 -59 159 C-57 164 -57 164 -56.1875 166.5625 C-54.70140163 169.61291244 -52.63327152 170.92110143 -50 173 C-50 173.99 -50 174.98 -50 176 C-49.01 176.33 -48.02 176.66 -47 177 C-47 177.66 -47 178.32 -47 179 C-46.34 179 -45.68 179 -45 179 C-45 180.32 -45 181.64 -45 183 C-41.01939223 184.17076699 -37.08378283 185.25749403 -33 186 C-33.185625 186.598125 -33.37125 187.19625 -33.5625 187.8125 C-34.22093687 190.16408762 -34.22093687 190.16408762 -33 193 C-31.88625 193.1546875 -31.88625 193.1546875 -30.75 193.3125 C-27.8026481 194.04933797 -26.21616926 194.94799142 -24 197 C-24 197.66 -24 198.32 -24 199 C-22.35 199 -20.7 199 -19 199 C-19 199.99 -19 200.98 -19 202 C-17.68 202 -16.36 202 -15 202 C-15 200.35 -15 198.7 -15 197 C-14.01 196.67 -13.02 196.34 -12 196 C-11.34 196.33 -10.68 196.66 -10 197 C-10 198.32 -10 199.64 -10 201 C-9.195625 201.226875 -8.39125 201.45375 -7.5625 201.6875 C-6.716875 202.120625 -5.87125 202.55375 -5 203 C-4.1875 205.625 -4.1875 205.625 -4 208 C-3.30132813 207.97679687 -2.60265625 207.95359375 -1.8828125 207.9296875 C-0.97273438 207.91164063 -0.06265625 207.89359375 0.875 207.875 C1.77992187 207.85179687 2.68484375 207.82859375 3.6171875 207.8046875 C6 208 6 208 8 210 C10.10820797 209.6814823 10.10820797 209.6814823 12 209 C12 209.66 12 210.32 12 211 C12.66 211 13.32 211 14 211 C14 210.34 14 209.68 14 209 C15.32 209 16.64 209 18 209 C18 209.66 18 210.32 18 211 C18.66 211 19.32 211 20 211 C20 210.34 20 209.68 20 209 C23.00313748 207.49843126 25.79067522 207.90718796 29.125 207.9375 C30.40632813 207.94652344 31.68765625 207.95554687 33.0078125 207.96484375 C34.48894531 207.98224609 34.48894531 207.98224609 36 208 C36 207.01 36 206.02 36 205 C37.98 205 39.96 205 42 205 C42 204.01 42 203.02 42 202 C43.98 202 45.96 202 48 202 C47.67 199.69 47.34 197.38 47 195 C48.65614657 194.61781233 50.32457024 194.28604898 52 194 C52.33 194.33 52.66 194.66 53 195 C53.33 193.68 53.66 192.36 54 191 C56.64 191 59.28 191 62 191 C62 190.34 62 189.68 62 189 C61.34 189 60.68 189 60 189 C60 188.01 60 187.02 60 186 C60.99 185.67 61.98 185.34 63 185 C63.33 185.99 63.66 186.98 64 188 C65.32 188 66.64 188 68 188 C68.93423645 184.98968256 69.04449911 184.13349732 68 181 C68.33 180.34 68.66 179.68 69 179 C69.5775 179.20625 70.155 179.4125 70.75 179.625 C73.51967567 180.08661261 74.64561267 179.42944945 77 178 C77 177.34 77 176.68 77 176 C78.65 176 80.3 176 82 176 C82 187.22 82 198.44 82 210 C79.69 209.67 77.38 209.34 75 209 C74.67 209.66 74.34 210.32 74 211 C73.01 211 72.02 211 71 211 C71 211.66 71 212.32 71 213 C68.69723426 215.21747812 67.47519908 215.96760006 64.25 216.1875 C63.5075 216.125625 62.765 216.06375 62 216 C62 216.99 62 217.98 62 219 C58.14243493 221.15305957 55.44870215 222.39253254 51 222 C50.67 222.99 50.34 223.98 50 225 C48.02 225 46.04 225 44 225 C44 225.66 44 226.32 44 227 C40.20240339 228.8987983 35.33866756 228.37560725 31.12109375 228.51757812 C26.58706955 228.53831191 26.58706955 228.53831191 23 231 C20.67749023 231.24291992 20.67749023 231.24291992 17.80859375 231.23046875 C16.78185547 231.22853516 15.75511719 231.22660156 14.69726562 231.22460938 C13.62154297 231.21236328 12.54582031 231.20011719 11.4375 231.1875 C10.35791016 231.18685547 9.27832031 231.18621094 8.16601562 231.18554688 C0.14014598 231.14014598 0.14014598 231.14014598 -1 230 C-2.41120902 229.77428816 -3.83176043 229.60611651 -5.25390625 229.46484375 C-6.53491211 229.33432617 -6.53491211 229.33432617 -7.84179688 229.20117188 C-9.18854492 229.0706543 -9.18854492 229.0706543 -10.5625 228.9375 C-11.46419922 228.84662109 -12.36589844 228.75574219 -13.29492188 228.66210938 C-15.52958434 228.43746077 -17.76457839 228.21694231 -20 228 C-20.33 227.01 -20.66 226.02 -21 225 C-23.64 225 -26.28 225 -29 225 C-29.33 224.01 -29.66 223.02 -30 222 C-31.98 222 -33.96 222 -36 222 C-36 221.01 -36 220.02 -36 219 C-36.99 219 -37.98 219 -39 219 C-39 218.01 -39 217.02 -39 216 C-40.65 216 -42.3 216 -44 216 C-44 215.34 -44 214.68 -44 214 C-44.99 214 -45.98 214 -47 214 C-47 213.01 -47 212.02 -47 211 C-48.175625 211.0309375 -48.175625 211.0309375 -49.375 211.0625 C-52 211 -52 211 -54 210 C-55.32 210 -56.64 210 -58 210 C-58.33 207.36 -58.66 204.72 -59 202 C-59.99 202 -60.98 202 -62 202 C-62 201.01 -62 200.02 -62 199 C-62.928125 198.814375 -62.928125 198.814375 -63.875 198.625 C-66 198 -66 198 -68 196 C-68 195.01 -68 194.02 -68 193 C-68.66 193 -69.32 193 -70 193 C-70 192.01 -70 191.02 -70 190 C-70.99 190 -71.98 190 -73 190 C-73 189.01 -73 188.02 -73 187 C-73.99 187 -74.98 187 -76 187 C-76 185.35 -76 183.7 -76 182 C-76.99 182 -77.98 182 -79 182 C-79 180.02 -79 178.04 -79 176 C-80.65 175.67 -82.3 175.34 -84 175 C-84.33 173.35 -84.66 171.7 -85 170 C-85.33 170.99 -85.66 171.98 -86 173 C-87.32 173 -88.64 173 -90 173 C-90 171.35 -90 169.7 -90 168 C-89.01 167.67 -88.02 167.34 -87 167 C-87.33 166.67 -87.66 166.34 -88 166 C-88.07205511 164.31391034 -88.08386068 162.62499341 -88.0625 160.9375 C-88.05347656 160.01839844 -88.04445313 159.09929687 -88.03515625 158.15234375 C-88.02355469 157.44207031 -88.01195312 156.73179687 -88 156 C-88.99 155.67 -89.98 155.34 -91 155 C-91.19456705 153.04235617 -91.38044247 151.08384679 -91.5625 149.125 C-91.66691406 148.03445313 -91.77132813 146.94390625 -91.87890625 145.8203125 C-92 143 -92 143 -91 141 C-91.99 141 -92.98 141 -94 141 C-95.08212598 129.16320654 -94.98805359 117.42775863 -94.625 105.5625 C-94.60357941 104.81791534 -94.58215881 104.07333069 -94.56008911 103.30618286 C-94.49661753 101.16350851 -94.42573489 99.02123445 -94.3515625 96.87890625 C-94.30854004 95.6266626 -94.26551758 94.37441895 -94.22119141 93.08422852 C-94 90 -94 90 -93 87 C-92.34 87 -91.68 87 -91 87 C-91.02320313 86.22914063 -91.04640625 85.45828125 -91.0703125 84.6640625 C-91.08835937 83.66117188 -91.10640625 82.65828125 -91.125 81.625 C-91.14820313 80.62726563 -91.17140625 79.62953125 -91.1953125 78.6015625 C-91 76 -91 76 -89 74 C-89 73.01 -89 72.02 -89 71 C-90.32 71 -91.64 71 -93 71 C-92.67 69.68 -92.34 68.36 -92 67 C-90.68 67.33 -89.36 67.66 -88 68 C-86.43727811 63.60746227 -86.43727811 63.60746227 -86 59 C-85.01 59.33 -84.02 59.66 -83 60 C-82.67 58.35 -82.34 56.7 -82 55 C-81.01 55 -80.02 55 -79 55 C-79.185625 54.38125 -79.37125 53.7625 -79.5625 53.125 C-80 51 -80 51 -79 49 C-78.01 49 -77.02 49 -76 49 C-76 48.01 -76 47.02 -76 46 C-75.01 46 -74.02 46 -73 46 C-73 44.02 -73 42.04 -73 40 C-72.01 40 -71.02 40 -70 40 C-70 39.01 -70 38.02 -70 37 C-69.34 37 -68.68 37 -68 37 C-68 36.34 -68 35.68 -68 35 C-66.6875 33.375 -66.6875 33.375 -65 32 C-64.01 32 -63.02 32 -62 32 C-62 31.01 -62 30.02 -62 29 C-61.01 29 -60.02 29 -59 29 C-59 28.01 -59 27.02 -59 26 C-58.01 26 -57.02 26 -56 26 C-56 25.01 -56 24.02 -56 23 C-55.01 23 -54.02 23 -53 23 C-53 22.01 -53 21.02 -53 20 C-52.01 20 -51.02 20 -50 20 C-49.505 18.515 -49.505 18.515 -49 17 C-47.35 17 -45.7 17 -44 17 C-44 16.01 -44 15.02 -44 14 C-42.35 14 -40.7 14 -39 14 C-39 13.34 -39 12.68 -39 12 C-37.20963542 11.12109375 -35.41927083 10.2421875 -33.62890625 9.36328125 C-31.41772076 7.80171021 -31.41772076 7.80171021 -31 3 C-27.7 3.99 -24.4 4.98 -21 6 C-20.67 5.01 -20.34 4.02 -20 3 C-13.73 3 -7.46 3 -1 3 C-0.67 2.01 -0.34 1.02 0 0 Z " fill="#FFFFFF" transform="translate(1322,684)"/>
<path d="M0 0 C3.53571429 0.53571429 3.53571429 0.53571429 5 2 C7.32817964 2.36760731 9.6618385 2.70241581 12 3 C12 3.99 12 4.98 12 6 C14.64 6 17.28 6 20 6 C20.33 4.35 20.66 2.7 21 1 C22.98 1.99 24.96 2.98 27 4 C27 48.55 27 93.1 27 139 C27.66 139 28.32 139 29 139 C28.32829194 142.8063457 27.27253436 146.35206816 26 150 C25.34 150 24.68 150 24 150 C24 156.6 24 163.2 24 170 C23.01 170 22.02 170 21 170 C21 172.97 21 175.94 21 179 C20.01 179 19.02 179 18 179 C18 180.98 18 182.96 18 185 C17.01 185 16.02 185 15 185 C15 186.65 15 188.3 15 190 C14.34 190 13.68 190 13 190 C12.7525 190.680625 12.505 191.36125 12.25 192.0625 C10.75802092 195.56865083 8.93164489 198.71620368 7 202 C6.01 202 5.02 202 4 202 C4 202.99 4 203.98 4 205 C3.01 205 2.02 205 1 205 C1 205.99 1 206.98 1 208 C0.01 208 -0.98 208 -2 208 C-2 208.99 -2 209.98 -2 211 C-2.99 211 -3.98 211 -5 211 C-5 211.66 -5 212.32 -5 213 C-6.1875 214.625 -6.1875 214.625 -8 216 C-10.6875 216.1875 -10.6875 216.1875 -13 216 C-13.33 216.99 -13.66 217.98 -14 219 C-15.65 219 -17.3 219 -19 219 C-19 219.99 -19 220.98 -19 222 C-20.98 222 -22.96 222 -25 222 C-25 222.99 -25 223.98 -25 225 C-26.98 225 -28.96 225 -31 225 C-31 225.99 -31 226.98 -31 228 C-33.97 228 -36.94 228 -40 228 C-40 228.99 -40 229.98 -40 231 C-45.23273331 231.04935824 -50.46533176 231.08569949 -55.69824219 231.10986328 C-57.47919067 231.11993431 -59.26012257 231.13359185 -61.04101562 231.15087891 C-63.59769783 231.17507913 -66.15416185 231.18647184 -68.7109375 231.1953125 C-69.50994476 231.20563507 -70.30895203 231.21595764 -71.13217163 231.22659302 C-73.0895722 231.22699226 -75.04643077 231.12241069 -77 231 C-77.66 230.34 -78.32 229.68 -79 229 C-81.82552559 228.57313577 -81.82552559 228.57313577 -85 228.4375 C-90.80926431 228.09536785 -90.80926431 228.09536785 -93 227 C-93 226.34 -93 225.68 -93 225 C-95.31 225 -97.62 225 -100 225 C-100.33 224.34 -100.66 223.68 -101 223 C-103.52733235 222.34444881 -103.52733235 222.34444881 -106 222 C-106 221.01 -106 220.02 -106 219 C-106.5775 219.350625 -107.155 219.70125 -107.75 220.0625 C-110.35801776 221.14917407 -111.39417629 220.93065133 -114 220 C-113.34 218.68 -112.68 217.36 -112 216 C-113.65 216 -115.3 216 -117 216 C-117 214.35 -117 212.7 -117 211 C-118.98 211 -120.96 211 -123 211 C-123 210.01 -123 209.02 -123 208 C-123.99 208 -124.98 208 -126 208 C-126 207.01 -126 206.02 -126 205 C-126.33 206.65 -126.66 208.3 -127 210 C-128.32 210 -129.64 210 -131 210 C-131 208.68 -131 207.36 -131 206 C-130.34 206 -129.68 206 -129 206 C-129 204.68 -129 203.36 -129 202 C-129.99 202 -130.98 202 -132 202 C-132 201.01 -132 200.02 -132 199 C-134.12364481 198.77390663 -134.12364481 198.77390663 -135.625 200.5 C-136.07875 200.995 -136.5325 201.49 -137 202 C-137.99 201.67 -138.98 201.34 -140 201 C-140 199.68 -140 198.36 -140 197 C-139.01 196.67 -138.02 196.34 -137 196 C-137.33 194.02 -137.66 192.04 -138 190 C-138.66 190 -139.32 190 -140 190 C-140.12375 189.360625 -140.2475 188.72125 -140.375 188.0625 C-140.58125 187.381875 -140.7875 186.70125 -141 186 C-141.66 185.67 -142.32 185.34 -143 185 C-143.33333333 183.33333333 -143.66666667 181.66666667 -144 180 C-144.66 179.67 -145.32 179.34 -146 179 C-146 177.02 -146 175.04 -146 173 C-146.99 172.67 -147.98 172.34 -149 172 C-149.04898437 171.02417969 -149.09796875 170.04835938 -149.1484375 169.04296875 C-149.26058594 167.13451172 -149.26058594 167.13451172 -149.375 165.1875 C-149.44460938 163.92292969 -149.51421875 162.65835938 -149.5859375 161.35546875 C-149.76102939 157.87244766 -149.76102939 157.87244766 -152 155 C-152.24609566 152.55374622 -152.24609566 152.55374622 -152.24050903 149.59004211 C-152.24463303 147.90523239 -152.24463303 147.90523239 -152.24884033 146.18638611 C-152.24164978 144.95352371 -152.23445923 143.72066132 -152.22705078 142.45043945 C-152.22734283 141.15277649 -152.22763489 139.85511353 -152.22793579 138.51812744 C-152.22851028 134.95844603 -152.21674046 131.39889904 -152.20278788 127.8392489 C-152.19029654 124.1196614 -152.18911128 120.40007093 -152.18673706 116.6804657 C-152.18051759 109.63629995 -152.16410047 102.59219618 -152.14403808 95.54805773 C-152.1216936 87.52880242 -152.11068931 79.50954417 -152.10064721 71.49026549 C-152.07973463 54.99347403 -152.0445496 38.49674492 -152 22 C-152.66 22 -153.32 22 -154 22 C-154 20.68 -154 19.36 -154 18 C-153.34 18 -152.68 18 -152 18 C-152.33 17.34 -152.66 16.68 -153 16 C-155.02463255 15.34786708 -155.02463255 15.34786708 -157 15 C-157.185625 14.13375 -157.185625 14.13375 -157.375 13.25 C-158.00648824 10.97664233 -158.88858191 9.0746471 -160 7 C-157 6 -157 6 -154 6 C-153.195625 5.154375 -152.39125 4.30875 -151.5625 3.4375 C-150.716875 2.633125 -149.87125 1.82875 -149 1 C-146.875 1.1875 -146.875 1.1875 -145 2 C-144.01 2 -143.02 2 -142 2 C-142.33 3.32 -142.66 4.64 -143 6 C-139.34683329 4.75023244 -138.21934164 4.32901247 -136 1 C-135.01 1 -134.02 1 -133 1 C-132.67 2.65 -132.34 4.3 -132 6 C-131.34 6 -130.68 6 -130 6 C-129.67 4.35 -129.34 2.7 -129 1 C-126.525 2.485 -126.525 2.485 -124 4 C-124.57584432 6.38564077 -125.22227595 8.66682784 -126 11 C-126.99 11 -127.98 11 -129 11 C-128.91620009 28.95850107 -128.82110404 46.91690482 -128.71247292 64.87527275 C-128.66230109 73.21321646 -128.61585881 81.55115011 -128.578125 89.88916016 C-128.5452358 97.15458582 -128.50542181 104.41993445 -128.45720994 111.6852752 C-128.43191423 115.53401441 -128.41014217 119.38270232 -128.39665604 123.23150253 C-128.38386336 126.85122089 -128.36183966 130.47076357 -128.33261681 134.09038544 C-128.31916837 136.0580559 -128.31561413 138.02578612 -128.31230164 139.99349976 C-128.30113815 141.15740234 -128.28997467 142.32130493 -128.2784729 143.52047729 C-128.27294214 144.53629316 -128.26741138 145.55210903 -128.26171303 146.5987072 C-128.23359572 149.18395855 -128.23359572 149.18395855 -126 151 C-125.73008094 153.68839385 -125.91262643 156.29141936 -126 159 C-125.01 159 -124.02 159 -123 159 C-123 159.99 -123 160.98 -123 162 C-121.35 162 -119.7 162 -118 162 C-117.67 162.99 -117.34 163.98 -117 165 C-117.33 165.66 -117.66 166.32 -118 167 C-118.99 167.33 -119.98 167.66 -121 168 C-120.505 170.475 -120.505 170.475 -120 173 C-119.34 173 -118.68 173 -118 173 C-117.67 174.98 -117.34 176.96 -117 179 C-116.01 179.33 -115.02 179.66 -114 180 C-114 181.65 -114 183.3 -114 185 C-113.34 185 -112.68 185 -112 185 C-112 185.99 -112 186.98 -112 188 C-111.01 188 -110.02 188 -109 188 C-109 188.66 -109 189.32 -109 190 C-108.01 190.33 -107.02 190.66 -106 191 C-106 191.66 -106 192.32 -106 193 C-104.35 193 -102.7 193 -101 193 C-100.67 193.99 -100.34 194.98 -100 196 C-99.4225 195.67 -98.845 195.34 -98.25 195 C-96 194 -96 194 -92 194 C-92.020625 194.763125 -92.04125 195.52625 -92.0625 196.3125 C-92.12942841 199.10185786 -92.12942841 199.10185786 -91 202 C-89.35 202 -87.7 202 -86 202 C-86 202.99 -86 203.98 -86 205 C-84.576875 204.9690625 -84.576875 204.9690625 -83.125 204.9375 C-80 205 -80 205 -78 206 C-78 206.66 -78 207.32 -78 208 C-74.7 208 -71.4 208 -68 208 C-68 208.99 -68 209.98 -68 211 C-65.03 211 -62.06 211 -59 211 C-58.67 210.01 -58.34 209.02 -58 208 C-53.71 208 -49.42 208 -45 208 C-45 207.01 -45 206.02 -45 205 C-43.02 205 -41.04 205 -39 205 C-39 204.01 -39 203.02 -39 202 C-37.02 202 -35.04 202 -33 202 C-32.67 201.01 -32.34 200.02 -32 199 C-29.4375 197.8125 -29.4375 197.8125 -27 197 C-27.185625 196.38125 -27.37125 195.7625 -27.5625 195.125 C-28 193 -28 193 -27 191 C-24.93734178 190.6088062 -22.90556733 190.49325481 -20.8125 190.34375 C-19.9153125 190.17359375 -19.9153125 190.17359375 -19 190 C-18.67 189.34 -18.34 188.68 -18 188 C-17.34 188 -16.68 188 -16 188 C-16 187.01 -16 186.02 -16 185 C-15.01 185 -14.02 185 -13 185 C-13 184.01 -13 183.02 -13 182 C-12.34 182 -11.68 182 -11 182 C-10.67 181.01 -10.34 180.02 -10 179 C-9.34 179 -8.68 179 -8 179 C-8 177.35 -8 175.7 -8 174 C-7.01 173.67 -6.02 173.34 -5 173 C-5 172.01 -5 171.02 -5 170 C-4.34 169.67 -3.68 169.34 -3 169 C-2.53348793 166.87423218 -2.53348793 166.87423218 -2.375 164.4375 C-2.30023438 163.61121094 -2.22546875 162.78492188 -2.1484375 161.93359375 C-2.07496094 160.97646484 -2.07496094 160.97646484 -2 160 C-1.01 159.67 -0.02 159.34 1 159 C1 156.36 1 153.72 1 151 C1.99 150.67 2.98 150.34 4 150 C3.67 107.76 3.34 65.52 3 22 C1.68 22 0.36 22 -1 22 C-1 20.68 -1 19.36 -1 18 C-0.34 18 0.32 18 1 18 C0.814375 17.195625 0.62875 16.39125 0.4375 15.5625 C0.2209375 14.2940625 0.2209375 14.2940625 0 13 C0.33 12.67 0.66 12.34 1 12 C0.01 11.34 -0.98 10.68 -2 10 C-2.36328125 8.125 -2.36328125 8.125 -2.3125 6 C-2.30863281 5.29875 -2.30476562 4.5975 -2.30078125 3.875 C-2 2 -2 2 0 0 Z M-151 4 C-151 4.66 -151 5.32 -151 6 C-150.34 6 -149.68 6 -149 6 C-149 5.34 -149 4.68 -149 4 C-149.66 4 -150.32 4 -151 4 Z M-97 197 C-97 197.66 -97 198.32 -97 199 C-96.34 198.67 -95.68 198.34 -95 198 C-95.66 197.67 -96.32 197.34 -97 197 Z " fill="#FFFFFF" transform="translate(457,684)"/>
<path d="M0 0 C0.7734375 0.495 0.7734375 0.495 1.5625 1 C4.79710256 2.32701643 7.53176977 2.12611746 11 2 C14.506816 2 18.00702355 2.11021905 21.51171875 2.21875 C22.23994339 2.24094604 22.96816803 2.26314209 23.71846008 2.28601074 C26.04148666 2.35691384 28.36449329 2.42844899 30.6875 2.5 C32.2636706 2.54821875 33.83984246 2.59639633 35.41601562 2.64453125 C39.27735853 2.7625433 43.13868366 2.88112217 47 3 C47 3.99 47 4.98 47 6 C49.64 6 52.28 6 55 6 C55.33 5.01 55.66 4.02 56 3 C57.65 3 59.3 3 61 3 C61.82638376 5.89234315 62 7.88742431 62 11 C63.65 11.33 65.3 11.66 67 12 C67 12.66 67 13.32 67 14 C67.99 14 68.98 14 70 14 C70 14.99 70 15.98 70 17 C70.99 17 71.98 17 73 17 C73 17.99 73 18.98 73 20 C75.31 19.67 77.62 19.34 80 19 C79.67 21.31 79.34 23.62 79 26 C79.99 26 80.98 26 82 26 C82 26.99 82 27.98 82 29 C82.99 29 83.98 29 85 29 C85 29.99 85 30.98 85 32 C85.99 32 86.98 32 88 32 C88 32.66 88 33.32 88 34 C88.99 34.33 89.98 34.66 91 35 C93 38 93 38 93 42 C93.99 42.33 94.98 42.66 96 43 C97.1875 45.5625 97.1875 45.5625 98 48 C98.99 47.01 98.99 47.01 100 46 C102.625 46.375 102.625 46.375 105 47 C105 48.32 105 49.64 105 51 C103.0625 51.5625 103.0625 51.5625 101 52 C100.67 51.67 100.34 51.34 100 51 C99.67 52.32 99.34 53.64 99 55 C99.99 55 100.98 55 102 55 C102.1953125 57.05078125 102.390625 59.1015625 102.5859375 61.15234375 C102.72257813 61.76207031 102.85921875 62.37179687 103 63 C103.66 63.33 104.32 63.66 105 64 C105.99119859 79.93508157 106.1128392 95.82906589 106.04459953 111.79025841 C106.02596972 116.165325 106.01662449 120.54038424 106.00868225 124.91548157 C105.98476642 137.33667535 105.94831654 149.75781798 105.90405273 162.17895508 C105.87953828 169.0808028 105.86216427 175.98263218 105.85249335 182.88451701 C105.84595843 187.23525401 105.83042481 191.58583636 105.80817592 195.93651998 C105.79374175 199.25674847 105.79227117 202.57695915 105.78881836 205.8972168 C105.78005676 207.10068253 105.77129517 208.30414825 105.76226807 209.54408264 C105.76357224 210.6355661 105.7648764 211.72704956 105.76622009 212.85160828 C105.76307769 213.80327724 105.75993528 214.75494619 105.75669765 215.73545361 C105.78194251 218.2002918 105.78194251 218.2002918 108 220 C108.125 222.625 108.125 222.625 108 225 C107.01 225 106.02 225 105 225 C105 225.99 105 226.98 105 228 C98.4 228 91.8 228 85 228 C85 227.01 85 226.02 85 225 C84.01 225 83.02 225 82 225 C82 223.35 82 221.7 82 220 C82.99 219.67 83.98 219.34 85 219 C84.91619837 201.56303055 84.8211017 184.12616454 84.71247292 166.68933296 C84.66230207 158.59352645 84.61585979 150.49773029 84.578125 142.40185547 C84.54523478 135.34737905 84.50542022 128.29298196 84.45720994 121.23859298 C84.43191524 117.50163658 84.41014289 113.764733 84.39665604 110.02771378 C84.3814888 105.86097012 84.35086596 101.69448025 84.31884766 97.52783203 C84.31668747 96.28202362 84.31452728 95.03621521 84.31230164 93.75265503 C84.30113815 92.62240906 84.28997467 91.49216309 84.2784729 90.32766724 C84.27294214 89.34134874 84.26741138 88.35503025 84.26171303 87.33882332 C84.22493055 84.80887266 84.22493055 84.80887266 82 83 C81.8046875 79.7421875 81.8046875 79.7421875 81.875 75.875 C81.89304687 74.59367188 81.91109375 73.31234375 81.9296875 71.9921875 C81.95289063 71.00476563 81.97609375 70.01734375 82 69 C80.824375 68.814375 80.824375 68.814375 79.625 68.625 C77 68 77 68 75 66 C72.93125966 65.3574765 72.93125966 65.3574765 71 65 C71 63.68 71 62.36 71 61 C73.475 60.505 73.475 60.505 76 60 C75.01 59.67 74.02 59.34 73 59 C73 57.68 73 56.36 73 55 C71.68 54.34 70.36 53.68 69 53 C69.33 51.68 69.66 50.36 70 49 C69.34 49 68.68 49 68 49 C68 48.01 68 47.02 68 46 C67.01 46 66.02 46 65 46 C65 45.01 65 44.02 65 43 C64.01 43 63.02 43 62 43 C62 42.01 62 41.02 62 40 C61.01 40 60.02 40 59 40 C59 39.01 59 38.02 59 37 C57.02 37 55.04 37 53 37 C53 36.01 53 35.02 53 34 C52.01 34 51.02 34 50 34 C50 33.34 50 32.68 50 32 C49.27425781 31.88785156 48.54851562 31.77570312 47.80078125 31.66015625 C44.87436007 30.97038613 42.77712191 29.94489186 40.1875 28.4375 C39.39730469 27.98246094 38.60710937 27.52742187 37.79296875 27.05859375 C37.20128906 26.70925781 36.60960937 26.35992188 36 26 C36 25.01 36 24.02 36 23 C35.48791992 23.16749756 34.97583984 23.33499512 34.44824219 23.50756836 C31.1821785 24.16449401 28.15706674 24.00169508 24.828125 23.87890625 C23.8044986 23.84348976 23.8044986 23.84348976 22.76019287 23.80735779 C20.58989942 23.7310504 18.41999286 23.64688594 16.25 23.5625 C14.77475824 23.50924627 13.29949784 23.45650611 11.82421875 23.40429688 C8.21591088 23.2754805 4.6079079 23.13961806 1 23 C1 23.99 1 24.98 1 26 C-1.97 26 -4.94 26 -8 26 C-8 26.99 -8 27.98 -8 29 C-8.99 29 -9.98 29 -11 29 C-11 29.66 -11 30.32 -11 31 C-11.639375 31.12375 -12.27875 31.2475 -12.9375 31.375 C-13.618125 31.58125 -14.29875 31.7875 -15 32 C-15.495 32.99 -15.495 32.99 -16 34 C-17.65 34 -19.3 34 -21 34 C-21.33 34.99 -21.66 35.98 -22 37 C-22.99 37 -23.98 37 -25 37 C-25 37.99 -25 38.98 -25 40 C-24.01 40.33 -23.02 40.66 -22 41 C-22 42.65 -22 44.3 -22 46 C-23.65 46 -25.3 46 -27 46 C-27.33 45.01 -27.66 44.02 -28 43 C-28.99 43 -29.98 43 -31 43 C-31 43.99 -31 44.98 -31 46 C-31.66 46 -32.32 46 -33 46 C-33.28875 46.928125 -33.5775 47.85625 -33.875 48.8125 C-35 52 -35 52 -37 55 C-37.66 55 -38.32 55 -39 55 C-39 56.65 -39 58.3 -39 60 C-39.99 60 -40.98 60 -42 60 C-42 62.64 -42 65.28 -42 68 C-43.485 68.495 -43.485 68.495 -45 69 C-45 69.99 -45 70.98 -45 72 C-45.99 72 -46.98 72 -48 72 C-47.34 72.99 -46.68 73.98 -46 75 C-46.2421875 78.35546875 -46.2421875 78.35546875 -46.875 82.1875 C-47.07867188 83.45980469 -47.28234375 84.73210937 -47.4921875 86.04296875 C-47.65976562 87.01878906 -47.82734375 87.99460937 -48 89 C-48.99 89 -49.98 89 -51 89 C-50.99484627 89.6156825 -50.98969254 90.23136499 -50.98438263 90.86570454 C-50.8590613 105.83804679 -50.73387792 120.81039018 -50.60884857 135.78273487 C-50.54838233 143.02320728 -50.48786918 150.26367929 -50.42724609 157.50415039 C-50.37441482 163.81402611 -50.32167107 170.12390256 -50.26903296 176.4337799 C-50.24115166 179.77562017 -50.21322617 183.11746006 -50.18519592 186.45929909 C-50.15394728 190.18746471 -50.12285331 193.9156316 -50.09179688 197.64379883 C-50.08244614 198.75510162 -50.0730954 199.86640442 -50.0634613 201.01138306 C-50.05504715 202.02520554 -50.046633 203.03902802 -50.03796387 204.08357239 C-50.03058952 204.96572827 -50.02321518 205.84788416 -50.01561737 206.75677204 C-50.00344981 208.50448009 -50 210.25224959 -50 212 C-49.52870015 214.77083806 -49.52870015 214.77083806 -48 217 C-47.85884839 219.67058851 -47.95752893 222.32432238 -48 225 C-48.99 225 -49.98 225 -51 225 C-51 225.99 -51 226.98 -51 228 C-52.32 228 -53.64 228 -55 228 C-55 228.66 -55 229.32 -55 230 C-56.32 229.67 -57.64 229.34 -59 229 C-58.67 228.01 -58.34 227.02 -58 226 C-59.65 225.67 -61.3 225.34 -63 225 C-63.33 225.99 -63.66 226.98 -64 228 C-64.66 228.33 -65.32 228.66 -66 229 C-66 230.32 -66 231.64 -66 233 C-67.65 232.67 -69.3 232.34 -71 232 C-71 229.66666667 -71 227.33333333 -71 225 C-71.99 225 -72.98 225 -74 225 C-74.1953125 218.9453125 -74.1953125 218.9453125 -74 217 C-73.01 216.01 -73.01 216.01 -72 215 C-71.70421966 212.67849811 -71.70421966 212.67849811 -71.76622009 209.9453125 C-71.76491592 208.87473602 -71.76361176 207.80415955 -71.76226807 206.70114136 C-71.77102966 205.52101471 -71.77979126 204.34088806 -71.78881836 203.125 C-71.7901326 201.88565704 -71.79144684 200.64631409 -71.7928009 199.36941528 C-71.79707541 196.66723887 -71.80500822 193.96536026 -71.81910515 191.26324463 C-71.84139863 186.97351225 -71.84946838 182.68382455 -71.85560608 178.39404297 C-71.86700752 171.58732054 -71.88772963 164.78066378 -71.91250378 157.97397804 C-71.95661236 145.84485695 -71.99023919 133.71571683 -72.01274782 121.58653641 C-72.0210563 117.34090697 -72.03512103 113.09534718 -72.0535987 108.84975052 C-72.11114028 94.86371105 -72.05559118 80.95128701 -71 67 C-69.515 66.505 -69.515 66.505 -68 66 C-68.391875 65.113125 -68.78375 64.22625 -69.1875 63.3125 C-70 60 -70 60 -68.75 57.125 C-68.1725 56.42375 -67.595 55.7225 -67 55 C-66.34 55 -65.68 55 -65 55 C-65 53.02 -65 51.04 -65 49 C-64.01 49 -63.02 49 -62 49 C-62 47.02 -62 45.04 -62 43 C-62.99 42.67 -63.98 42.34 -65 42 C-65 38 -65 38 -63.875 36.375 C-61.37918784 34.54473775 -58.98599301 33.7623812 -56 33 C-55.34 33.33 -54.68 33.66 -54 34 C-54 33.34 -54 32.68 -54 32 C-53.01 32 -52.02 32 -51 32 C-51 31.01 -51 30.02 -51 29 C-50.01 29 -49.02 29 -48 29 C-48 28.01 -48 27.02 -48 26 C-47.01 26 -46.02 26 -45 26 C-45 25.01 -45 24.02 -45 23 C-43.5 21.3125 -43.5 21.3125 -42 20 C-42.99 19.67 -43.98 19.34 -45 19 C-45 17.68 -45 16.36 -45 15 C-43.3125 14.3125 -43.3125 14.3125 -41 14 C-38.25 15.4375 -38.25 15.4375 -36 17 C-36 16.34 -36 15.68 -36 15 C-31.49459884 11.31558305 -26.66177782 8.4517379 -21 7 C-21 6.01 -21 5.02 -21 4 C-20.01 3.67 -19.02 3.34 -18 3 C-15.3125 4.4375 -15.3125 4.4375 -13 6 C-13 5.01 -13 4.02 -13 3 C-9.04 3 -5.08 3 -1 3 C-0.67 2.01 -0.34 1.02 0 0 Z M-40 18 C-39 20 -39 20 -39 20 Z M-60 40 C-59 43 -59 43 -59 43 Z " fill="#FFFFFF" transform="translate(604,684)"/>
<path d="M0 0 C3 2 3 2 4 3 C4 2.01 4 1.02 4 0 C5.32 0 6.64 0 8 0 C7.67 1.32 7.34 2.64 7 4 C7.66 4.33 8.32 4.66 9 5 C9 6.65 9 8.3 9 10 C8.01 10 7.02 10 6 10 C6.00607553 11.1606793 6.01215105 12.3213586 6.01841068 13.51721001 C6.1625206 41.09301952 6.30120648 68.668852 6.4332476 96.24472206 C6.44951785 99.64166386 6.46583369 103.03860543 6.48217773 106.43554688 C6.48543066 107.11179332 6.48868358 107.78803977 6.49203508 108.48477854 C6.54475773 119.42263482 6.60117134 130.36046909 6.6589582 141.29829966 C6.71820665 152.52839354 6.77338915 163.75850247 6.82505554 174.98863423 C6.85419049 181.29351539 6.8851583 187.59837545 6.92053413 193.90322495 C6.95379069 199.84073334 6.98211681 205.7782451 7.00670624 211.71579552 C7.01657869 213.89178169 7.02823291 216.06776064 7.04183006 218.24372673 C7.06017242 221.22237108 7.07200905 224.20097542 7.08229065 227.17965698 C7.08909444 228.03377383 7.09589823 228.88789068 7.10290819 229.76788986 C7.11358204 235.56591263 6.67461842 241.2423995 6 247 C6.99 247 7.98 247 9 247 C9 247.99 9 248.98 9 250 C10.65 250.33 12.3 250.66 14 251 C14 252.32 14 253.64 14 255 C13.34 255.33 12.68 255.66 12 256 C12 256.99 12 257.98 12 259 C12.99 259.33 13.98 259.66 15 260 C15 260.66 15 261.32 15 262 C16.65 262 18.3 262 20 262 C20 263.65 20 265.3 20 267 C18.35 267 16.7 267 15 267 C15 267.99 15 268.98 15 270 C15.66 270 16.32 270 17 270 C17.33 269.34 17.66 268.68 18 268 C19.65 268 21.3 268 23 268 C22.67 269.65 22.34 271.3 22 273 C21.34 273 20.68 273 20 273 C20 274.98 20 276.96 20 279 C20.99 279 21.98 279 23 279 C23.2475 279.804375 23.495 280.60875 23.75 281.4375 C24.72238859 284.171081 24.72238859 284.171081 27.125 284.8125 C27.74375 284.874375 28.3625 284.93625 29 285 C29 285.99 29 286.98 29 288 C29.99 288 30.98 288 32 288 C32 288.99 32 289.98 32 291 C32.99 291 33.98 291 35 291 C35 291.66 35 292.32 35 293 C36.65 293 38.3 293 40 293 C40.495 294.485 40.495 294.485 41 296 C42.65 296.33 44.3 296.66 46 297 C46 297.66 46 298.32 46 299 C47.98 299 49.96 299 52 299 C52 299.99 52 300.98 52 302 C55.63 302 59.26 302 63 302 C63 302.99 63 303.98 63 305 C67.34184202 304.81535634 67.34184202 304.81535634 71 303 C74 302.875 74 302.875 77 303 C77.33 303.33 77.66 303.66 78 304 C79.36019863 304.0979295 80.7253927 304.12798066 82.08911133 304.12939453 C82.95703812 304.13254669 83.8249649 304.13569885 84.7191925 304.13894653 C86.13629768 304.13591019 86.13629768 304.13591019 87.58203125 304.1328125 C88.54775558 304.13376923 89.51347992 304.13472595 90.50846863 304.13571167 C92.55716008 304.13639378 94.60585368 304.13453737 96.65454102 304.13037109 C99.7886239 304.12504061 102.92256233 304.13030606 106.05664062 304.13671875 C108.04427115 304.13605763 110.03190158 304.13477577 112.01953125 304.1328125 C112.95819534 304.13483673 113.89685944 304.13686096 114.8639679 304.13894653 C115.74135117 304.13579437 116.61873444 304.13264221 117.52270508 304.12939453 C118.67734001 304.12820114 118.67734001 304.12820114 119.8553009 304.12698364 C122.01852461 303.99890319 123.92064749 303.59462772 126 303 C126 303.66 126 304.32 126 305 C126.66 305 127.32 305 128 305 C128.33 304.01 128.66 303.02 129 302 C130.48484412 302.39595843 131.9628831 302.81750706 133.4375 303.25 C134.26121094 303.48203125 135.08492187 303.7140625 135.93359375 303.953125 C138 305 138 305 138.78515625 307.109375 C138.85605469 307.73328125 138.92695313 308.3571875 139 309 C138.01 309.33 137.02 309.66 136 310 C136 313.3 136 316.6 136 320 C136.99 320.33 137.98 320.66 139 321 C138.875 322.875 138.875 322.875 138 325 C134.40349908 326.59844485 131.96602757 327 128 327 C128 326.34 128 325.68 128 325 C127.34 325 126.68 325 126 325 C126 325.66 126 326.32 126 327 C125.21432648 326.75885216 125.21432648 326.75885216 124.41278076 326.51283264 C121.37207239 325.866535 118.50524166 325.83559529 115.39550781 325.79467773 C114.74143448 325.78477814 114.08736115 325.77487854 113.41346741 325.76467896 C111.26005626 325.73319149 109.10662308 325.70835728 106.953125 325.68359375 C105.45667968 325.66301319 103.96024004 325.64201643 102.46380615 325.62062073 C98.53147991 325.56551382 94.59910219 325.51605453 90.66668701 325.46777344 C86.65144284 325.41747514 82.63627311 325.36183261 78.62109375 325.30664062 C70.74745884 325.19919832 62.87376151 325.09772264 55 325 C54.67 325.99 54.34 326.98 54 328 C52.68 328 51.36 328 50 328 C49.67 327.34 49.34 326.68 49 326 C46.47266765 325.34444881 46.47266765 325.34444881 44 325 C44 324.01 44 323.02 44 322 C41.03 322 38.06 322 35 322 C35 321.01 35 320.02 35 319 C33.02 319 31.04 319 29 319 C29 318.01 29 317.02 29 316 C27.6078125 316.0928125 27.6078125 316.0928125 26.1875 316.1875 C23 316 23 316 21.125 314.625 C20 313 20 313 20 311 C18.35 310.67 16.7 310.34 15 310 C15 309.34 15 308.68 15 308 C14.01 308 13.02 308 12 308 C12 307.01 12 306.02 12 305 C11.01 305 10.02 305 9 305 C9 304.01 9 303.02 9 302 C8.01 302 7.02 302 6 302 C6 301.01 6 300.02 6 299 C5.01 299 4.02 299 3 299 C2.67 298.34 2.34 297.68 2 297 C1.01 297 0.02 297 -1 297 C-1.1546875 295.9171875 -1.1546875 295.9171875 -1.3125 294.8125 C-2.06029278 291.75334771 -3.34777805 289.65792227 -5 287 C-5 286.34 -5 285.68 -5 285 C-6.32 285.66 -7.64 286.32 -9 287 C-9.99 285.515 -9.99 285.515 -11 284 C-9.35 283.34 -7.7 282.68 -6 282 C-6.66 282 -7.32 282 -8 282 C-8 280.02 -8 278.04 -8 276 C-8.99 276 -9.98 276 -11 276 C-11 274.02 -11 272.04 -11 270 C-12.32 270.33 -13.64 270.66 -15 271 C-14.67 266.05 -14.34 261.1 -14 256 C-14.99 256 -15.98 256 -17 256 C-17 172.84 -17 89.68 -17 4 C-15.68 4 -14.36 4 -13 4 C-13 3.34 -13 2.68 -13 2 C-11.783125 2.226875 -10.56625 2.45375 -9.3125 2.6875 C-6.02379309 3.11976343 -5.12653537 3.06063153 -2 1.5625 C-1.34 1.046875 -0.68 0.53125 0 0 Z M14 263 C15 265 15 265 15 265 Z " fill="#FFFFFF" transform="translate(149,584)"/>
<path d="M0 0 C0.33 0.66 0.66 1.32 1 2 C2.97080157 2.74276031 2.97080157 2.74276031 5 3 C5.33 2.67 5.66 2.34 6 2 C8.35313555 1.92728259 10.70833668 1.91629132 13.0625 1.9375 C14.35285156 1.94652344 15.64320312 1.95554687 16.97265625 1.96484375 C17.97167969 1.97644531 18.97070312 1.98804688 20 2 C20 2.99 20 3.98 20 5 C20.66 5 21.32 5 22 5 C22 4.34 22 3.68 22 3 C23.65 2.67 25.3 2.34 27 2 C27.33 3.32 27.66 4.64 28 6 C26.68 6.33 25.36 6.66 24 7 C23.67 12.94 23.34 18.88 23 25 C24.65 25 26.3 25 28 25 C28.33 25.99 28.66 26.98 29 28 C29.99 28 30.98 28 32 28 C32.98120464 24.94736336 32.98120464 23.05263664 32 20 C32.66 19.67 33.32 19.34 34 19 C34.72693904 17.02111039 35.39816251 15.02045442 36 13 C37.9375 13.375 37.9375 13.375 40 14 C40.495 14.99 40.495 14.99 41 16 C42.65 16 44.3 16 46 16 C46 15.01 46 14.02 46 13 C50.22949995 10.58314288 53.12335991 9.65166856 58 10 C58 9.34 58 8.68 58 8 C61.72801446 5.19018169 64.64416096 4.61333868 69.25 4.4375 C72.34995589 4.35566714 72.34995589 4.35566714 75 4 C75.33 3.34 75.66 2.68 76 2 C79.375 1.875 79.375 1.875 83 2 C83.99 2.99 83.99 2.99 85 4 C88.12196336 4.46486718 88.12196336 4.46486718 91.625 4.625 C93.40777344 4.73714844 93.40777344 4.73714844 95.2265625 4.8515625 C96.14179687 4.90054688 97.05703125 4.94953125 98 5 C98.33 4.01 98.66 3.02 99 2 C100.65 2 102.3 2 104 2 C104.495 3.485 104.495 3.485 105 5 C106.65 5.33 108.3 5.66 110 6 C109.09569378 11.68421053 109.09569378 11.68421053 108.375 14.0625 C107.8881611 16.57783433 108.38439188 18.53756752 109 21 C108.34 21 107.68 21 107 21 C107 22.32 107 23.64 107 25 C103.10460543 25.19747891 99.20867984 25.38123029 95.3125 25.5625 C93.65831055 25.64661133 93.65831055 25.64661133 91.97070312 25.73242188 C90.90400391 25.78076172 89.83730469 25.82910156 88.73828125 25.87890625 C87.26935425 25.94960327 87.26935425 25.94960327 85.77075195 26.02172852 C83.04207295 26.00032994 80.64920937 25.62794508 78 25 C78 25.99 78 26.98 78 28 C71.25 30 71.25 30 69 30 C67.515 30.495 67.515 30.495 66 31 C66 31.66 66 32.32 66 33 C64.35 33 62.7 33 61 33 C60.67 33.99 60.34 34.98 60 36 C57.8592495 38.650453 56.24899316 39.2419016 53 40 C52.505 40.99 52.505 40.99 52 42 C51.01 42 50.02 42 49 42 C49 42.99 49 43.98 49 45 C48.01 45 47.02 45 46 45 C46 45.99 46 46.98 46 48 C45.01 48 44.02 48 43 48 C43 49.65 43 51.3 43 53 C42.01 53.33 41.02 53.66 40 54 C40 54.66 40 55.32 40 56 C38.625 57.625 38.625 57.625 37 59 C36.34 59 35.68 59 35 59 C35.103125 59.825 35.20625 60.65 35.3125 61.5 C34.93797095 65.69472537 33.49627659 67.6334337 31.171875 71.03515625 C29.64118379 73.60161519 29.35810463 76.06354204 29 79 C28.01 79.495 28.01 79.495 27 80 C26.53476937 81.89533342 26.53476937 81.89533342 26.375 84.0625 C26.25125 85.361875 26.1275 86.66125 26 88 C25.01 88 24.02 88 23 88 C23.16330276 88.54672237 23.32660551 89.09344475 23.49485683 89.65673447 C24.07322313 92.33966854 24.10577833 94.74679987 24.08229065 97.49224854 C24.07525116 98.60841553 24.06821167 99.72458252 24.06095886 100.87457275 C24.04801285 102.09448914 24.03506683 103.31440552 24.02172852 104.57128906 C24.01212097 105.85934448 24.00251343 107.1473999 23.99261475 108.4744873 C23.9661783 112.0031133 23.93338979 115.53165507 23.89946485 119.06021595 C23.86507765 122.74907822 23.83652663 126.43798553 23.80735779 130.12689209 C23.75124709 137.11082689 23.68988412 144.09470529 23.62663645 151.07857871 C23.55488091 159.03011949 23.48897708 166.98170539 23.42356598 174.9333005 C23.28889082 191.28892607 23.1468631 207.64447923 23 224 C22.01 224 21.02 224 20 224 C20 224.99 20 225.98 20 227 C17.69 227 15.38 227 13 227 C12.67 226.01 12.34 225.02 12 224 C10.68 224 9.36 224 8 224 C8 224.99 8 225.98 8 227 C5.69 227 3.38 227 1 227 C0.67 226.01 0.34 225.02 0 224 C-0.99 224 -1.98 224 -3 224 C-3 222.35 -3 220.7 -3 219 C-2.01 218.67 -1.02 218.34 0 218 C-0.00607553 217.2245518 -0.01215105 216.4491036 -0.01841068 215.65015697 C-0.1657694 196.79733624 -0.3075086 177.94448097 -0.4429636 159.09157085 C-0.50860417 149.97451683 -0.57615917 140.85748445 -0.64819336 131.74047852 C-0.7109604 123.79575811 -0.77016368 115.85102058 -0.82505554 107.90624171 C-0.85425591 103.69806043 -0.88526246 99.48990966 -0.92053413 95.28177452 C-0.95365792 91.32318556 -0.98202651 87.36459135 -1.00670624 83.40594101 C-1.0166225 81.95104857 -1.02829447 80.4961669 -1.04183006 79.04130363 C-1.06001628 77.05867579 -1.07134102 75.07598851 -1.08229065 73.0933075 C-1.09058679 71.98254695 -1.09888292 70.8717864 -1.10743046 69.72736645 C-1 67 -1 67 0 64 C-0.66 64 -1.32 64 -2 64 C-1.83628906 62.69426025 -1.67257812 61.38852051 -1.50390625 60.04321289 C-0.99452571 55.44222414 -0.88548695 50.9329259 -0.9375 46.30859375 C-0.94128662 45.519048 -0.94507324 44.72950226 -0.94897461 43.91603088 C-0.96105446 41.42312791 -0.97967195 38.93034847 -1 36.4375 C-1.02679542 33.1445339 -1.04668761 29.85162894 -1.0625 26.55859375 C-1.07079834 25.81878769 -1.07909668 25.07898163 -1.08764648 24.3167572 C-1.11022292 19.45652636 -0.68900616 14.81253173 0 10 C-0.99 10 -1.98 10 -3 10 C-3 8.35 -3 6.7 -3 5 C-2.01 5 -1.02 5 0 5 C-0.2784375 4.0409375 -0.2784375 4.0409375 -0.5625 3.0625 C-0.706875 2.381875 -0.85125 1.70125 -1 1 C-0.67 0.67 -0.34 0.34 0 0 Z M35 19 C35.99 19.495 35.99 19.495 37 20 C37.33 20.66 37.66 21.32 38 22 C38 21.01 38 20.02 38 19 C37.01 19 36.02 19 35 19 Z M23 30 C23.99 30.495 23.99 30.495 25 31 C25.33 31.66 25.66 32.32 26 33 C26 32.34 26 31.68 26 31 C26.99 30.67 27.98 30.34 29 30 C27.02 30 25.04 30 23 30 Z " fill="#FFFFFF" transform="translate(1012,685)"/>
<path d="M0 0 C0.5775 0.165 1.155 0.33 1.75 0.5 C4.45033485 1.10007441 6.34161797 0.66459551 9 0 C9.66 0.99 10.32 1.98 11 3 C13.56282742 3.72965366 13.56282742 3.72965366 16 4 C16 4.66 16 5.32 16 6 C16.928125 5.62875 17.85625 5.2575 18.8125 4.875 C19.864375 4.58625 20.91625 4.2975 22 4 C22.99 4.66 23.98 5.32 25 6 C25.29414467 8.92141834 25.39095319 11.63084739 25.36076355 14.55459595 C25.36332682 15.45060276 25.3658901 16.34660958 25.36853105 17.26976812 C25.37349614 20.29021383 25.35693123 23.31016629 25.34057617 26.33056641 C25.33973049 28.48846932 25.34020389 30.6463731 25.34190369 32.80427551 C25.34276736 38.67801167 25.32508153 44.55156548 25.30418181 50.42525911 C25.28547682 56.55785997 25.28366946 62.69046462 25.28010559 68.8230896 C25.27076692 80.44304236 25.24612853 92.06291082 25.21605712 103.6828264 C25.18256972 116.90872781 25.16604136 130.13463316 25.15097082 143.36056638 C25.11958054 170.57375772 25.06678471 197.78687414 25 225 C21.26798075 225.84676067 18.73059699 225.95929637 15 225 C15 225.66 15 226.32 15 227 C13.68 226.67 12.36 226.34 11 226 C10.34 227.65 9.68 229.3 9 231 C8.236875 230.814375 7.47375 230.62875 6.6875 230.4375 C3.91032625 229.77180827 3.91032625 229.77180827 1 231 C0.34 230.67 -0.32 230.34 -1 230 C-1 226.7 -1 223.4 -1 220 C0.65 219.67 2.3 219.34 4 219 C4 152.34 4 85.68 4 17 C3.34 17 2.68 17 2 17 C2.061875 16.21625 2.12375 15.4325 2.1875 14.625 C2.125625 13.75875 2.06375 12.8925 2 12 C1.01 11.34 0.02 10.68 -1 10 C-0.814375 9.443125 -0.62875 8.88625 -0.4375 8.3125 C0.07438502 5.60682204 -0.42343384 3.66661851 -1 1 C-0.67 0.67 -0.34 0.34 0 0 Z " fill="#FFFFFF" transform="translate(1149,684)"/>
<path d="M0 0 C4.875 0.875 4.875 0.875 6 2 C7.84891946 2.23363881 9.70488031 2.41303635 11.5625 2.5625 C12.57441406 2.64628906 13.58632813 2.73007812 14.62890625 2.81640625 C15.80259766 2.90728516 15.80259766 2.90728516 17 3 C17 2.34 17 1.68 17 1 C21.29 1.66 25.58 2.32 30 3 C30 3.99 30 4.98 30 6 C30.99 6 31.98 6 33 6 C33 6.99 33 7.98 33 9 C33.99 9 34.98 9 36 9 C36 9.99 36 10.98 36 12 C36.99 12 37.98 12 39 12 C39 12.66 39 13.32 39 14 C39.94875 13.649375 40.8975 13.29875 41.875 12.9375 C45 12 45 12 47 13 C47 13.99 47 14.98 47 16 C46.01 16.33 45.02 16.66 44 17 C43.34 16.67 42.68 16.34 42 16 C42.00523682 16.78238037 42.01047363 17.56476074 42.01586914 18.37084961 C42.03657106 21.89305833 42.04963838 25.4152543 42.0625 28.9375 C42.07087891 30.16919922 42.07925781 31.40089844 42.08789062 32.66992188 C42.09111328 33.83974609 42.09433594 35.00957031 42.09765625 36.21484375 C42.10289307 37.29886475 42.10812988 38.38288574 42.11352539 39.49975586 C42 42 42 42 41 43 C42.32 43.66 43.64 44.32 45 45 C44.67 46.32 44.34 47.64 44 49 C42.35 48.67 40.7 48.34 39 48 C39 47.34 39 46.68 39 46 C38.01 46 37.02 46 36 46 C36 46.99 36 47.98 36 49 C33.03 49.495 33.03 49.495 30 50 C30 50.66 30 51.32 30 52 C29.01 52 28.02 52 27 52 C27 52.99 27 53.98 27 55 C25.35 54.67 23.7 54.34 22 54 C22 53.34 22 52.68 22 52 C21.01 52.495 21.01 52.495 20 53 C18.12060547 53.02172852 18.12060547 53.02172852 15.8671875 52.87890625 C15.06152344 52.83056641 14.25585938 52.78222656 13.42578125 52.73242188 C12.58402344 52.67634766 11.74226562 52.62027344 10.875 52.5625 C10.02550781 52.51029297 9.17601562 52.45808594 8.30078125 52.40429688 C6.20020876 52.27448622 4.10005809 52.1378826 2 52 C2 51.01 2 50.02 2 49 C1.01 49 0.02 49 -1 49 C-1 48.01 -1 47.02 -1 46 C-1.99 46 -2.98 46 -4 46 C-4 45.01 -4 44.02 -4 43 C-4.99 43 -5.98 43 -7 43 C-7.12375 41.88625 -7.2475 40.7725 -7.375 39.625 C-7.6465813 35.96896323 -7.6465813 35.96896323 -10 34 C-10.39764263 32.01178687 -10.73775349 30.01055661 -11 28 C-12.32 28 -13.64 28 -15 28 C-15.33 25.69 -15.66 23.38 -16 21 C-13.23735711 20.40267181 -10.83967231 20 -8 20 C-7.896875 19.236875 -7.79375 18.47375 -7.6875 17.6875 C-6.94932885 14.80192188 -6.37859197 13.73820183 -4 12 C-3.01 12 -2.02 12 -1 12 C-0.855625 11.38125 -0.71125 10.7625 -0.5625 10.125 C0 8 0 8 1 6 C0.34 5.67 -0.32 5.34 -1 5 C-0.67 3.35 -0.34 1.7 0 0 Z M4 4 C3.34 4.66 2.68 5.32 2 6 C2.99 6 3.98 6 5 6 C4.67 5.34 4.34 4.68 4 4 Z M-10 25 C-9 27 -9 27 -9 27 Z M18 29 C18 29.66 18 30.32 18 31 C17.01 31.495 17.01 31.495 16 32 C17.32 31.67 18.64 31.34 20 31 C19.34 30.34 18.68 29.68 18 29 Z " fill="#FFFFFF" transform="translate(872,730)"/>
<path d="M0 0 C2.97 0 5.94 0 9 0 C9.33 0.99 9.66 1.98 10 3 C10.99 3 11.98 3 13 3 C13 2.01 13 1.02 13 0 C16.3 0 19.6 0 23 0 C23.33 1.65 23.66 3.3 24 5 C24.99 5.33 25.98 5.66 27 6 C27 13.26 27 20.52 27 28 C26.01 28 25.02 28 24 28 C24 28.99 24 29.98 24 31 C22.02 31 20.04 31 18 31 C18 31.99 18 32.98 18 34 C16.35 34 14.7 34 13 34 C13 33.01 13 32.02 13 31 C12.01 31 11.02 31 10 31 C10 31.99 10 32.98 10 34 C8.02 34 6.04 34 4 34 C4 33.01 4 32.02 4 31 C2.02 31 0.04 31 -2 31 C-2 30.01 -2 29.02 -2 28 C-2.66 28 -3.32 28 -4 28 C-4.94969869 25.15090394 -5.12869462 23.35751252 -5.1328125 20.40234375 C-5.13410156 19.51869141 -5.13539063 18.63503906 -5.13671875 17.72460938 C-5.13285156 16.80486328 -5.12898437 15.88511719 -5.125 14.9375 C-5.12886719 14.01388672 -5.13273438 13.09027344 -5.13671875 12.13867188 C-5.13542969 11.25630859 -5.13414062 10.37394531 -5.1328125 9.46484375 C-5.13168457 8.656521 -5.13055664 7.84819824 -5.12939453 7.01538086 C-5 5 -5 5 -4 3 C-3.01 3 -2.02 3 -1 3 C-0.67 2.01 -0.34 1.02 0 0 Z " fill="#FFFFFF" transform="translate(829,791)"/>
<path d="M0 0 C2.15992656 0.72453233 4.28913401 1.48728461 6.40625 2.328125 C6.40625 3.318125 6.40625 4.308125 6.40625 5.328125 C7.39625 5.658125 8.38625 5.988125 9.40625 6.328125 C9.53 7.565625 9.65375 8.803125 9.78125 10.078125 C10.16371305 13.2043447 10.71174523 15.61691737 12.40625 18.328125 C11.41625 18.658125 10.42625 18.988125 9.40625 19.328125 C9.40625 22.298125 9.40625 25.268125 9.40625 28.328125 C8.41625 28.328125 7.42625 28.328125 6.40625 28.328125 C6.40625 29.318125 6.40625 30.308125 6.40625 31.328125 C4.42625 31.328125 2.44625 31.328125 0.40625 31.328125 C0.07625 32.318125 -0.25375 33.308125 -0.59375 34.328125 C-2.57375 34.328125 -4.55375 34.328125 -6.59375 34.328125 C-7.08875 32.843125 -7.08875 32.843125 -7.59375 31.328125 C-10.56375 31.328125 -13.53375 31.328125 -16.59375 31.328125 C-16.92375 32.318125 -17.25375 33.308125 -17.59375 34.328125 C-18.91375 33.998125 -20.23375 33.668125 -21.59375 33.328125 C-21.59375 32.008125 -21.59375 30.688125 -21.59375 29.328125 C-20.93375 28.998125 -20.27375 28.668125 -19.59375 28.328125 C-20.25375 27.338125 -20.91375 26.348125 -21.59375 25.328125 C-21.59375 19.66145833 -21.59375 13.99479167 -21.59375 8.328125 C-20.60375 8.328125 -19.61375 8.328125 -18.59375 8.328125 C-18.59375 6.348125 -18.59375 4.368125 -18.59375 2.328125 C-16.94375 2.328125 -15.29375 2.328125 -13.59375 2.328125 C-13.59375 1.668125 -13.59375 1.008125 -13.59375 0.328125 C-9.45497765 -1.74126117 -4.37334201 -1.13285365 0 0 Z " fill="#FFFFFF" transform="translate(1169.59375,614.671875)"/>
<path d="M0 0 C1.28132812 0.00902344 2.56265625 0.01804687 3.8828125 0.02734375 C4.87023437 0.03894531 5.85765625 0.05054688 6.875 0.0625 C7.205 1.0525 7.535 2.0425 7.875 3.0625 C8.865 3.3925 9.855 3.7225 10.875 4.0625 C10.875 8.3525 10.875 12.6425 10.875 17.0625 C9.885 17.0625 8.895 17.0625 7.875 17.0625 C8.205 18.7125 8.535 20.3625 8.875 22.0625 C8.215 21.7325 7.555 21.4025 6.875 21.0625 C4.16237884 20.8302354 1.46726874 20.64313765 -1.25 20.5 C-2.38115234 20.43522461 -2.38115234 20.43522461 -3.53515625 20.36914062 C-5.39821888 20.2630168 -7.26158524 20.16224999 -9.125 20.0625 C-9.125 19.0725 -9.125 18.0825 -9.125 17.0625 C-10.115 17.0625 -11.105 17.0625 -12.125 17.0625 C-12.125 15.0825 -12.125 13.1025 -12.125 11.0625 C-13.775 11.0625 -15.425 11.0625 -17.125 11.0625 C-16.795 9.4125 -16.465 7.7625 -16.125 6.0625 C-13.815 6.0625 -11.505 6.0625 -9.125 6.0625 C-9.125 4.4125 -9.125 2.7625 -9.125 1.0625 C-6.12186252 -0.43906874 -3.33432478 -0.03031204 0 0 Z " fill="#FFFFFF" transform="translate(900.125,856.9375)"/>
<path d="M0 0 C0.99386719 0.02707031 1.98773437 0.05414062 3.01171875 0.08203125 C4.15060547 0.13423828 4.15060547 0.13423828 5.3125 0.1875 C5.3125 0.8475 5.3125 1.5075 5.3125 2.1875 C5.9725 2.1875 6.6325 2.1875 7.3125 2.1875 C7.6425 1.5275 7.9725 0.8675 8.3125 0.1875 C9.9625 0.1875 11.6125 0.1875 13.3125 0.1875 C13.3125 1.8375 13.3125 3.4875 13.3125 5.1875 C12.3225 5.5175 11.3325 5.8475 10.3125 6.1875 C10.6425 6.5175 10.9725 6.8475 11.3125 7.1875 C11.55981234 11.55668474 11.41571196 14.37542832 9.3125 18.1875 C9.3125 19.5075 9.3125 20.8275 9.3125 22.1875 C7.9925 21.8575 6.6725 21.5275 5.3125 21.1875 C4.9825 22.5075 4.6525 23.8275 4.3125 25.1875 C2.6625 24.8575 1.0125 24.5275 -0.6875 24.1875 C-0.3575 22.8675 -0.0275 21.5475 0.3125 20.1875 C-1.358125 20.249375 -1.358125 20.249375 -3.0625 20.3125 C-6.6875 20.1875 -6.6875 20.1875 -8.6875 18.1875 C-8.91305081 15.65957337 -9.01188591 13.27694424 -9 10.75 C-9.01611328 10.06873047 -9.03222656 9.38746094 -9.04882812 8.68554688 C-9.05160456 5.85080895 -8.98913931 3.69563065 -7.5234375 1.2265625 C-4.93662345 -0.23746417 -2.94972977 -0.10410811 0 0 Z " fill="#FFFFFF" transform="translate(856.6875,845.8125)"/>
<path d="M0 0 C1.66611905 -0.042721 3.33382885 -0.04063832 5 0 C5.33 0.33 5.66 0.66 6 1 C7.99958364 1.04080783 10.00045254 1.04254356 12 1 C12.33 1.66 12.66 2.32 13 3 C12.67 3.66 12.34 4.32 12 5 C12.66 5 13.32 5 14 5 C14.10794277 7.26979665 14.18556176 9.54105196 14.25 11.8125 C14.29640625 13.07707031 14.3428125 14.34164062 14.390625 15.64453125 C14 19 14 19 12.40625 20.9375 C9.22174845 22.34364354 6.71855374 22.29155661 3.25 22.1875 C2.07953125 22.16042969 0.9090625 22.13335938 -0.296875 22.10546875 C-1.18890625 22.07066406 -2.0809375 22.03585937 -3 22 C-3 21.34 -3 20.68 -3 20 C-3.99 19.67 -4.98 19.34 -6 19 C-6 14.38 -6 9.76 -6 5 C-5.01 5 -4.02 5 -3 5 C-3 4.01 -3 3.02 -3 2 C-2.01 2 -1.02 2 0 2 C0 1.34 0 0.68 0 0 Z " fill="#FFFFFF" transform="translate(836,719)"/>
<path d="M0 0 C0.99 0.33 1.98 0.66 3 1 C3 1.66 3 2.32 3 3 C6.96 3 10.92 3 15 3 C15 3.99 15 4.98 15 6 C15.99 6 16.98 6 18 6 C18 10.62 18 15.24 18 20 C17.01 20 16.02 20 15 20 C15 20.99 15 21.98 15 23 C14.01 23 13.02 23 12 23 C11.67 23.99 11.34 24.98 11 26 C9.68 25.67 8.36 25.34 7 25 C7 24.34 7 23.68 7 23 C5.35 22.67 3.7 22.34 2 22 C1.67 20.35 1.34 18.7 1 17 C0.01 17 -0.98 17 -2 17 C-2 15.02 -2 13.04 -2 11 C-1.01 10.67 -0.02 10.34 1 10 C1 9.34 1 8.68 1 8 C0.01 7.67 -0.98 7.34 -2 7 C-2 5.02 -2 3.04 -2 1 C-1.34 0.67 -0.68 0.34 0 0 Z " fill="#FFFFFF" transform="translate(896,805)"/>
<path d="M0 0 C2 1 4 2 6 3 C6 4.65 6 6.3 6 8 C5.01 8 4.02 8 3 8 C2.67 9.32 2.34 10.64 2 12 C1.01 11.67 0.02 11.34 -1 11 C-0.125 6.25 -0.125 6.25 1 4 C0.34 4 -0.32 4 -1 4 C-0.67 2.68 -0.34 1.36 0 0 Z " fill="#FFFFFF" transform="translate(1037,693)"/>
<path d="M0 0 C1.65 0 3.3 0 5 0 C5 1.65 5 3.3 5 5 C4.21625 4.938125 3.4325 4.87625 2.625 4.8125 C1.325625 4.9053125 1.325625 4.9053125 0 5 C-0.99 6.485 -0.99 6.485 -2 8 C-3.32 7.67 -4.64 7.34 -6 7 C-6 5.68 -6 4.36 -6 3 C-4.35 3 -2.7 3 -1 3 C-0.67 2.01 -0.34 1.02 0 0 Z " fill="#FFFFFF" transform="translate(828,716)"/>
<path d="M0 0 C2.31 0 4.62 0 7 0 C7.5625 1.9375 7.5625 1.9375 8 4 C7 5 7 5 3.9375 5.0625 C2.968125 5.041875 1.99875 5.02125 1 5 C0.67 3.35 0.34 1.7 0 0 Z " fill="#FFFFFF" transform="translate(880,927)"/>
<path d="M0 0 C2.875 -0.1875 2.875 -0.1875 6 0 C6.66 0.99 7.32 1.98 8 3 C6 5 6 5 2.875 5.125 C1.451875 5.063125 1.451875 5.063125 0 5 C0 3.35 0 1.7 0 0 Z " fill="#FFFFFF" transform="translate(871,898)"/>
<path d="M0 0 C2.475 0.495 2.475 0.495 5 1 C4.67 2.65 4.34 4.3 4 6 C3.01 6 2.02 6 1 6 C0 5 0 5 -0.0625 2.4375 C-0.041875 1.633125 -0.02125 0.82875 0 0 Z " fill="#FFFFFF" transform="translate(721,768)"/>
<path d="M0 0 C1.67542976 0.28604898 3.34385343 0.61781233 5 1 C4.67 2.32 4.34 3.64 4 5 C2.35 4.67 0.7 4.34 -1 4 C-1 1 -1 1 0 0 Z " fill="#FFFFFF" transform="translate(193,875)"/>
<path d="M0 0 C1.65 0 3.3 0 5 0 C5 1.65 5 3.3 5 5 C3.35 5 1.7 5 0 5 C0 3.35 0 1.7 0 0 Z " fill="#FFFFFF" transform="translate(894,892)"/>
<path d="M0 0 C1.65 0 3.3 0 5 0 C5 1.65 5 3.3 5 5 C3.35 5 1.7 5 0 5 C0 3.35 0 1.7 0 0 Z " fill="#FFFFFF" transform="translate(978,823)"/>
<path d="M0 0 C1.65 0 3.3 0 5 0 C5 1.65 5 3.3 5 5 C3.35 5 1.7 5 0 5 C0 3.35 0 1.7 0 0 Z " fill="#FFFFFF" transform="translate(1050,745)"/>
<path d="M0 0 C1.32 0 2.64 0 4 0 C4.33 0.99 4.66 1.98 5 3 C4.67 3.66 4.34 4.32 4 5 C2.35 4.67 0.7 4.34 -1 4 C-0.67 2.68 -0.34 1.36 0 0 Z " fill="#FFFFFF" transform="translate(736,866)"/>
<path d="M0 0 C0.99 0.33 1.98 0.66 3 1 C2.67 2.65 2.34 4.3 2 6 C0.68 5.67 -0.64 5.34 -2 5 C-2 3.68 -2 2.36 -2 1 C-1.34 0.67 -0.68 0.34 0 0 Z " fill="#FFFFFF" transform="translate(1260,828)"/>
<path d="M0 0 C1.32 0 2.64 0 4 0 C4 1.65 4 3.3 4 5 C2.35 4.67 0.7 4.34 -1 4 C-0.67 2.68 -0.34 1.36 0 0 Z " fill="#FFFFFF" transform="translate(892,924)"/>
<path d="M0 0 C1.32 0 2.64 0 4 0 C4.33 0.99 4.66 1.98 5 3 C4.67 3.66 4.34 4.32 4 5 C2.35 4.67 0.7 4.34 -1 4 C-0.67 2.68 -0.34 1.36 0 0 Z " fill="#FFFFFF" transform="translate(785,687)"/>
<path d="M0 0 C1.32 0 2.64 0 4 0 C3.67 1.65 3.34 3.3 3 5 C1.68 4.67 0.36 4.34 -1 4 C-0.67 2.68 -0.34 1.36 0 0 Z " fill="#FFFFFF" transform="translate(970,852)"/>
<path d="M0 0 C1.98 0.495 1.98 0.495 4 1 C3.67 2.32 3.34 3.64 3 5 C1.68 4.67 0.36 4.34 -1 4 C-0.67 2.68 -0.34 1.36 0 0 Z " fill="#FFFFFF" transform="translate(872,930)"/>
<path d="M0 0 C1.32 0 2.64 0 4 0 C4 1.65 4 3.3 4 5 C2.68 5 1.36 5 0 5 C-0.33 4.01 -0.66 3.02 -1 2 C-0.67 1.34 -0.34 0.68 0 0 Z " fill="#FFFFFF" transform="translate(557,895)"/>
<path d="M0 0 C1.32 0 2.64 0 4 0 C4.33 0.99 4.66 1.98 5 3 C4.67 3.66 4.34 4.32 4 5 C2.68 5 1.36 5 0 5 C0 3.35 0 1.7 0 0 Z " fill="#FFFFFF" transform="translate(857,794)"/>
<path d="M0 0 C0.99 0.33 1.98 0.66 3 1 C3 2.32 3 3.64 3 5 C1.35 4.67 -0.3 4.34 -2 4 C-2 3.01 -2 2.02 -2 1 C-1.34 0.67 -0.68 0.34 0 0 Z " fill="#FFFFFF" transform="translate(541,912)"/>
<path d="M0 0 C1.9375 0.75 1.9375 0.75 4 2 C4.75 4.125 4.75 4.125 5 6 C2.525 5.01 2.525 5.01 0 4 C0 2.68 0 1.36 0 0 Z " fill="#FFFFFF" transform="translate(901,878)"/>
<path d="M0 0 C1.98 0.495 1.98 0.495 4 1 C4 2.32 4 3.64 4 5 C2.68 5 1.36 5 0 5 C-0.33 4.01 -0.66 3.02 -1 2 C-0.67 1.34 -0.34 0.68 0 0 Z " fill="#FFFFFF" transform="translate(736,736)"/>
<path d="M0 0 C1.32 0.66 2.64 1.32 4 2 C3.67 2.99 3.34 3.98 3 5 C1.68 5 0.36 5 -1 5 C-0.67 3.35 -0.34 1.7 0 0 Z " fill="#FFFFFF" transform="translate(806,678)"/>
<path d="M0 0 C2.475 0.495 2.475 0.495 5 1 C4.67 1.99 4.34 2.98 4 4 C2.68 4 1.36 4 0 4 C0 2.68 0 1.36 0 0 Z " fill="#FFFFFF" transform="translate(903,731)"/>
<path d="M0 0 C1.32 0.66 2.64 1.32 4 2 C3.67 2.99 3.34 3.98 3 5 C1.68 4.67 0.36 4.34 -1 4 C-0.67 2.68 -0.34 1.36 0 0 Z " fill="#FFFFFF" transform="translate(907,684)"/>
<path d="M0 0 C1.32 0 2.64 0 4 0 C3.67 1.65 3.34 3.3 3 5 C2.01 4.67 1.02 4.34 0 4 C0 2.68 0 1.36 0 0 Z " fill="#FFFFFF" transform="translate(1411,774)"/>
<path d="M0 0 C1.98 0.495 1.98 0.495 4 1 C3.34 2.32 2.68 3.64 2 5 C1.01 4.34 0.02 3.68 -1 3 C-0.67 2.01 -0.34 1.02 0 0 Z " fill="#FFFFFF" transform="translate(771,699)"/>
<path d="M0 0 C1.32 0 2.64 0 4 0 C4 1.32 4 2.64 4 4 C2.68 4 1.36 4 0 4 C0 2.68 0 1.36 0 0 Z " fill="#FFFFFF" transform="translate(1160,913)"/>
<path d="M0 0 C1.32 0 2.64 0 4 0 C4 1.32 4 2.64 4 4 C2.68 4 1.36 4 0 4 C0 2.68 0 1.36 0 0 Z " fill="#FFFFFF" transform="translate(329,702)"/>
<path d="M0 0 C0.99 0 1.98 0 3 0 C3 1.32 3 2.64 3 4 C1.68 3.67 0.36 3.34 -1 3 C-0.67 2.01 -0.34 1.02 0 0 Z " fill="#FFFFFF" transform="translate(976,835)"/>
<path d="M0 0 C0.99 0 1.98 0 3 0 C3.33 0.99 3.66 1.98 4 3 C2.68 3.33 1.36 3.66 0 4 C-0.33 3.34 -0.66 2.68 -1 2 C-0.67 1.34 -0.34 0.68 0 0 Z " fill="#FFFFFF" transform="translate(898,800)"/>
<path d="M0 0 C0.99 0 1.98 0 3 0 C3 1.32 3 2.64 3 4 C1.68 3.67 0.36 3.34 -1 3 C-0.67 2.01 -0.34 1.02 0 0 Z " fill="#FFFFFF" transform="translate(901,783)"/>
<path d="M0 0 C0.99 0.33 1.98 0.66 3 1 C3 1.99 3 2.98 3 4 C1.68 4 0.36 4 -1 4 C-0.67 2.68 -0.34 1.36 0 0 Z " fill="#FFFFFF" transform="translate(861,745)"/>
<path d="M0 0 C1.32 0 2.64 0 4 0 C3.67 1.32 3.34 2.64 3 4 C2.01 3.67 1.02 3.34 0 3 C0 2.01 0 1.02 0 0 Z " fill="#FFFFFF" transform="translate(909,734)"/>
<path d="M0 0 C0.99 0 1.98 0 3 0 C3 1.32 3 2.64 3 4 C1.68 3.67 0.36 3.34 -1 3 C-0.67 2.01 -0.34 1.02 0 0 Z " fill="#FFFFFF" transform="translate(1158,650)"/>
<path d="M0 0 C1.32 0.33 2.64 0.66 4 1 C3.67 1.99 3.34 2.98 3 4 C2.01 3.67 1.02 3.34 0 3 C0 2.01 0 1.02 0 0 Z " fill="#FFFFFF" transform="translate(306,861)"/>
<path d="M0 0 C0.66 0.33 1.32 0.66 2 1 C1.67 2.32 1.34 3.64 1 5 C0.01 4.34 -0.98 3.68 -2 3 C-2 2.34 -2 1.68 -2 1 C-1.34 0.67 -0.68 0.34 0 0 Z " fill="#FFFFFF" transform="translate(1231,846)"/>
<path d="M0 0 C0.99 0 1.98 0 3 0 C2.67 1.32 2.34 2.64 2 4 C1.01 3.67 0.02 3.34 -1 3 C-0.67 2.01 -0.34 1.02 0 0 Z " fill="#FFFFFF" transform="translate(855,789)"/>
<path d="M0 0 C0.99 0.33 1.98 0.66 3 1 C3 1.99 3 2.98 3 4 C1.68 3.67 0.36 3.34 -1 3 C-0.67 2.01 -0.34 1.02 0 0 Z " fill="#FFFFFF" transform="translate(1054,696)"/>
<path d="M0 0 C2.0625 0.4375 2.0625 0.4375 4 1 C3.01 1.99 2.02 2.98 1 4 C0.34 3.01 -0.32 2.02 -1 1 C-0.67 0.67 -0.34 0.34 0 0 Z " fill="#FFFFFF" transform="translate(471,685)"/>
<path d="M0 0 C0.66 0.33 1.32 0.66 2 1 C2 1.66 2 2.32 2 3 C1.01 3 0.02 3 -1 3 C-0.67 2.01 -0.34 1.02 0 0 Z " fill="#FFFFFF" transform="translate(302,685)"/>
<path d="M0 0 C0.66 0 1.32 0 2 0 C1.67 0.99 1.34 1.98 1 3 C0.34 2.34 -0.32 1.68 -1 1 C-0.67 0.67 -0.34 0.34 0 0 Z " fill="#FFFFFF" transform="translate(766,902)"/>
<path d="M0 0 C0.66 0.33 1.32 0.66 2 1 C2 1.66 2 2.32 2 3 C1.01 2.67 0.02 2.34 -1 2 C-0.67 1.34 -0.34 0.68 0 0 Z " fill="#FFFFFF" transform="translate(951,824)"/>
<path d="M0 0 C0.66 0.33 1.32 0.66 2 1 C2 1.66 2 2.32 2 3 C1.01 2.67 0.02 2.34 -1 2 C-0.67 1.34 -0.34 0.68 0 0 Z " fill="#FFFFFF" transform="translate(844,786)"/>
<path d="M0 0 C0.66 0 1.32 0 2 0 C1.67 0.99 1.34 1.98 1 3 C0.34 2.34 -0.32 1.68 -1 1 C-0.67 0.67 -0.34 0.34 0 0 Z " fill="#FFFFFF" transform="translate(916,769)"/>
<path d="M0 0 C0.66 0.33 1.32 0.66 2 1 C2 1.66 2 2.32 2 3 C1.01 2.67 0.02 2.34 -1 2 C-0.67 1.34 -0.34 0.68 0 0 Z " fill="#FFFFFF" transform="translate(942,760)"/>
<path d="M0 0 C0.66 0 1.32 0 2 0 C1.67 0.99 1.34 1.98 1 3 C0.34 2.34 -0.32 1.68 -1 1 C-0.67 0.67 -0.34 0.34 0 0 Z " fill="#FFFFFF" transform="translate(567,746)"/>
<path d="M0 0 C0.66 0.66 1.32 1.32 2 2 C1.01 2.33 0.02 2.66 -1 3 C-0.67 2.01 -0.34 1.02 0 0 Z " fill="#FFFFFF" transform="translate(931,740)"/>
<path d="M0 0 C0.66 0 1.32 0 2 0 C1.67 0.99 1.34 1.98 1 3 C0.34 2.34 -0.32 1.68 -1 1 C-0.67 0.67 -0.34 0.34 0 0 Z " fill="#FFFFFF" transform="translate(1245,723)"/>
<path d="M0 0 C0.66 0.66 1.32 1.32 2 2 C1.01 2.33 0.02 2.66 -1 3 C-0.67 2.01 -0.34 1.02 0 0 Z " fill="#FFFFFF" transform="translate(1410,708)"/>
<path d="M0 0 C0.66 0.66 1.32 1.32 2 2 C1.01 2.33 0.02 2.66 -1 3 C-0.67 2.01 -0.34 1.02 0 0 Z " fill="#FFFFFF" transform="translate(553,708)"/>
<path d="M0 0 C0.66 0.66 1.32 1.32 2 2 C1.01 2.33 0.02 2.66 -1 3 C-0.67 2.01 -0.34 1.02 0 0 Z " fill="#FFFFFF" transform="translate(1107,685)"/>
<path d="M0 0 C0.66 0.66 1.32 1.32 2 2 C1.01 2 0.02 2 -1 2 C-0.67 1.34 -0.34 0.68 0 0 Z " fill="#FFFFFF" transform="translate(166,841)"/>
<path d="M0 0 C0.66 0 1.32 0 2 0 C1.67 0.99 1.34 1.98 1 3 C0.67 2.01 0.34 1.02 0 0 Z " fill="#FFFFFF" transform="translate(933,746)"/>
<path d="M0 0 C0.99 0.33 1.98 0.66 3 1 C2.01 1.33 1.02 1.66 0 2 C0 1.34 0 0.68 0 0 Z " fill="#FFFFFF" transform="translate(1380,726)"/>
<path d="M0 0 C0.66 0.66 1.32 1.32 2 2 C1.01 2 0.02 2 -1 2 C-0.67 1.34 -0.34 0.68 0 0 Z " fill="#FFFFFF" transform="translate(143,581)"/>
<path d="M0 0 C0.66 0 1.32 0 2 0 C2 0.66 2 1.32 2 2 C1.34 2 0.68 2 0 2 C0 1.34 0 0.68 0 0 Z " fill="#FFFFFF" transform="translate(223,882)"/>
<path d="M0 0 C0.66 0 1.32 0 2 0 C2 0.66 2 1.32 2 2 C1.34 2 0.68 2 0 2 C0 1.34 0 0.68 0 0 Z " fill="#FFFFFF" transform="translate(457,827)"/>
<path d="M0 0 C0.66 0 1.32 0 2 0 C2 0.66 2 1.32 2 2 C1.34 2 0.68 2 0 2 C0 1.34 0 0.68 0 0 Z " fill="#FFFFFF" transform="translate(959,732)"/>
</svg>